<svg xmlns="http://www.w3.org/2000/svg" viewBox="0 0 512 512"><title>Artboard 123</title><g id="Learning"><path d="M397.82161,346.72266A181.17368,181.17368,0,0,0,288,21.33333c-96.54557,0-175.24349,75.513-180.79427,170.66667h-.53906L44.67708,281.46224A28.10161,28.10161,0,0,0,70.76823,320h35.89844v33.82943a72.83656,72.83656,0,0,0,72.83593,72.83724h33.83073l12.96615,38.89843A36.70952,36.70952,0,0,0,261.125,490.66667H389.957a36.70952,36.70952,0,0,0,34.82552-48.319Z" style="fill:#c26765"/><path d="M288,21.33333h-.16579q-.50544.00049-1.01011.00391h-.03878l-.07347.00065a21.33329,21.33329,0,0,0,.31395,42.665h.06946L288,64h0c76.461,0,138.66667,62.20573,138.66667,138.66667,0,43.43717-19.95113,83.583-54.73792,110.1442a42.66665,42.66665,0,0,0-15.17269,45.48991l21.5872,76.56576a21.33331,21.33331,0,0,0,41.0706-11.56055l-17.286-61.3099-.0072-.02571-.04305-.15267-.0092-.03255-.0192-.068-.00184-.00651-.32889-1.16666-.00017-.00066-1.00712-3.57194-.01774-.06282-.02978-.1058-.01278-.04524-.01481-.05241-.011-.03906-.0057-.02051-.01375-.04883-.16512-.58561-.01217-.043-.00463-.0166-.03557-.126-.01115-.03971-.079-.28-.00008-.00033-.11889-.42187-.01429-.05046-.01843-.06543-.02384-.08463c-.04981-.17676-.09876-.35026-.14726-.52214l-.01025-.03646-.01258-.04459-.00272-.00977-.03325-.11784-.01135-.04036-.00806-.02865-.00875-.03092-.01253-.04427-.00793-.02832-.01034-.03679-.01086-.03841-.02665-.0944-.01477-.05241-.06706-.238-.00195-.00684-.0728-.25814-.00378-.01367q-.07221-.25585-.142-.50325l-.00728-.02572-.01042-.03711-.00423-.015-.11943-.42383-.00655-.02311q-.30915-1.09668-.56335-1.998l-.00192-.00684-.05057-.17936-.01132-.04c-.29183-1.03515-.5214-1.84928-.67826-2.4056l-.00033-.0013-.2423-.85937h0A181.17371,181.17371,0,0,0,288,21.33333Z" style="fill:#b13b39"/><path d="M403.99011,291.54753a21.27822,21.27822,0,0,0-15.46553,6.63541,139.40738,139.40738,0,0,1-54.21908,35.24284,21.33337,21.33337,0,1,0,14.24341,40.21908,181.00157,181.00157,0,0,0,52.08435-28.85808l.00179-.0013c.17322-.13737.34505-.27441.51774-.41243h.00008c.04183-.03353.08553-.06869.12736-.10189l.00444-.00358c.04044-.03255.0837-.06738.12414-.09961l.00444-.00358c.128-.10287.25484-.20475.38253-.30794l.00968-.00782c.0363-.02929.07483-.06022.11113-.08984l.0216-.01725.11475-.0931.00565-.00456q.12684-.10254.25358-.20573l.00944-.00749.11141-.09082.0223-.01823.10405-.08463.02022-.0166.12032-.09831.00024-.00033q.12439-.10155.24838-.20345l.02445-.01985.0977-.08041.02641-.02148c.03466-.02865.06742-.05566.10209-.084l.01965-.01628.24642-.20345.01347-.01107.10722-.08887.02559-.02116.09473-.07845.02942-.02441.10018-.08333.02042-.01693.12126-.10091.00952-.00781.10893-.09082.03117-.026.08927-.07454.03524-.02962.08748-.07292.03158-.02669.10062-.08431.01941-.01628c.03968-.0332.07976-.06673.11939-.10026l.02193-.01823.09444-.07975.03756-.03158.08252-.06966.03837-.03222.08476-.07162.03316-.028.118-.09994.00244-.00195.11418-.09668.03682-.03125.07967-.06771.04269-.03646.07532-.06413.04492-.03808.082-.07.03292-.028.11279-.09636.0402-.0345.07711-.06576.0481-.04134.06473-.05534.05392-.04622.06575-.05664.04981-.04264.08077-.06934.0494-.04264.09493-.08171.04508-.03906.07-.06055.05159-.0446.06661-.05761.0461-.03972.07365-.0638.04521-.03939.10771-.09342.05375-.04688.05709-.04948.06209-.054.05363-.04688.06055-.05273.05118-.0446.06291-.055.05135-.04492.11056-.09668.05407-.04753.0658-.05762.04557-.04.06637-.05827.04553-.04.06913-.06087.03923-.03451.07186-.06348.02246-.01985.16048-.1416.02718-.02409.07186-.06348.041-.03646.067-.05957.04635-.041.068-.06055.0317-.028c.08472-.07553.17-.15137.2546-.22689l.033-.0293.07373-.06608.0367-.03255.07361-.06608.032-.02865c.08862-.07943.185-.16569.27352-.24544l.01-.00879.07727-.06966.03442-.03093.07475-.06738.03182-.02865.07743-.07.028-.02539q.13239-.11964.26485-.23991l.02018-.01823.0767-.06966.03357-.0306.07764-.07064.02511-.02279c.12573-.11425.24853-.22656.3739-.34147l.01636-.01465.08605-.0791.0199-.01823.08643-.07942.01314-.01205c.12935-.11881.256-.23535.385-.35449l.00895-.00814.09208-.08528.01058-.00977c.12887-.11947.26083-.24186.38937-.36133l.00394-.0039c.03321-.0306.06-.05567.09314-.08659l.01009-.00944.094-.08757.00224-.00228c.16565-.15462.32906-.30761.49414-.46289l.00093-.001c.16508-.15528.32813-.30925.4926-.46517l.00207-.002q3.46644-3.28515,6.75623-6.74739a21.33358,21.33358,0,0,0-15.482-36.00716Z" style="fill:#b13b39"/><path d="M198.19271,341.33333H192V334.5651a21.33334,21.33334,0,0,0-42.66667,0v19.26823A30.1589,30.1589,0,0,0,179.5,384h18.69271a21.33334,21.33334,0,0,0,0-42.66667Z" style="fill:#d2908a"/><path d="M265.90755,448h-.48828L255.80469,419.155a21.33364,21.33364,0,0,0-40.48177,13.48047l7.05989,21.17968.00261.00912.05989.17969.0013.0026.03516.10677.03516.10287.01432.04557c.013.03906.02734.07812.04036.11719l.05469.16536.00912.02865.01953.05859c.00651.01823.01172.03646.01823.05469l.00521.01693c.00651.01692.01171.03255.01692.04947l.35547,1.06641.0013.00391.026.07812c.00521.01432.00912.026.013.04037l.00911.026c.00781.02474.01563.04557.02344.07031l.0026.00912c.01823.05468.03646.10937.05469.16276l.00911.02864.02344.06771.0013.00391c.00651.02083.013.04166.02084.0638l.01432.04166c.00651.01823.01172.03646.01823.05469l.0625.19011c.026.07812.05338.15755.07943.23567l.01172.03776c.01692.04948.03385.09766.04947.14714l.00391.00911c.01432.04558.03.08985.04427.13542l.02865.08594c.01172.03646.02474.07422.03776.11068l.0039.013c.01563.04817.03256.09895.04818.14713l.013.03776c.00651.01823.013.03906.01953.0586l.00131.0039.01953.05729.07552.22787.00781.02213.01172.03516c.00651.01823.01172.03776.01823.056l.00911.02734c.01563.04558.03.08985.04558.13542l.00911.02995c.02865.08594.05729.17187.08594.25651l.02995.08854c.02994.08984.05989.181.08984.26823l.01042.03125c.01432.04557.02994.09114.04427.13542l.00651.02083c.013.03776.026.07552.03776.112l.01953.056c.03125.09505.0625.1901.09375.28385l.0013.00391c.01693.04948.03385.099.04948.14844l.0013.0039c.00781.02214.01432.04427.02214.06641l.00781.02344.01042.02994.01823.05469c.01171.03646.02474.07292.03645.10938l.03516.10416a.25619.25619,0,0,0,.01042.03386l.01432.043c.02474.07421.04948.14974.07422.224l.03515.10547c.00782.02214.01563.043.02214.06511l.013.03645c.013.04037.026.07943.03906.11849l.00782.026c.02864.08593.05729.17057.08593.2552l.00521.01693c.0612.181.11979.35807.17708.52995l.00261.00911c.11588.34766.22656.67839.32943.98959l.0039.01041c.207.6211.388,1.16276.53646,1.61068l.00521.013c.29818.89584.46875,1.40755.46875,1.40755A36.70952,36.70952,0,0,0,261.125,490.66667h4.78255a21.33333,21.33333,0,1,0,0-42.66667Z" style="fill:#b13b39"/><circle cx="128" cy="256" r="21.33333" style="fill:#d2908a"/><rect x="375.16344" y="250.82368" width="60.33978" height="95.68597" rx="30.16986" ry="30.16986" transform="translate(-92.46984 374.09139) rotate(-45)" style="fill:#432542"/><circle cx="298.66667" cy="192" r="106.66667" style="fill:#d08b89"/><path d="M298.66667,106.66667A85.33339,85.33339,0,0,0,213.33333,192v.10824l.00017.01709.00016.10237v.02084l.00032.10481.00017.01042.00049.10384v.01074l.00065.10547.00016.01872.00081.10189.00017.02067.00081.1053.00016.00537.001.10206.00016.01839.0013.10449.00017.016.0013.105.00032.01709.00147.10238v.00634l.00163.10368.00048.0223.00163.09977.00033.02214.00195.10286.00016.01107.00212.10075.00016.01383.00212.10124.00065.02393.00212.09961.00048.01953.00261.10595v.002l.00276.10775.00033.01432.00277.10237.00049.02181.00293.10319.00032.01189.00293.10042.00049.01286.00309.10237.00065.02116.00326.09929.00065.02327.00342.1014.00048.01156.00326.09749.00065.0179.00374.10092.00082.02164.00374.10124.00065.01758.00391.10156.00032.00586.00407.103.001.022.00407.09847.001.02409.00423.099.00081.0179.00423.09489.00065.01448.00456.10043.00114.02376.00472.10042.00081.01661.00521.10709v.00065l.00537.10856.00065.01286.00538.10449.001.01775.00537.104.00065.01286.00538.09961.00081.01253.00553.10124.00114.02164.00586.10092.001.01774.006.10481.00049.008.00586.09912.00114.01758.00618.10156.00114.01953.00635.10173.001.01611.00651.10335.00032.00456.00668.10221.00146.02247.00651.09944.0013.0197.007.10188.00082.01384.00716.10319.00032.00553.00733.10319.00162.022.00717.10026.00113.01676.00782.10579.00032.00391.00765.103.00114.0166.00781.10156.00147.01921.00781.10286.001.01156.008.102.00082.00911.008.1001.002.02393.00781.09619.00195.02392.00814.099.00114.01465.00781.0931.00163.01839.00846.09929.002.02262.00846.09668.00195.02279.00879.10026.00016.002.00928.104.00179.01888.00895.09912.002.022.00911.0983.00179.01921.00863.09212.00146.01481.00944.09929.00212.02327.00928.09571.00244.02457.0096.09863.001.0101.00944.09505.002.01953.00993.09993.00195.01872.01042.10205.00146.01367.00993.0975.0013.01237.01058.10156.00212.01872.01058.09977.00195.01953.01091.10156.00114.01042.01025.09456.00212.019.0109.09863.00228.02051.0109.098.00245.02213.0109.096.001.00863.01139.1001.00228.01985.01139.09815.00244.02083.01156.099.00195.01758.01074.09033.002.01676.01172.09685.00276.02409.01156.09521.00293.02441.01188.09587.00179.01514.01123.09.00277.02279.01172.09391.00325.02572.01221.09668.00228.01741.01155.09034.00228.01741.01221.09489.00326.02507.0122.09277.00358.028.01254.09392.00227.01741.01189.08887.0026.02.0127.09424.00374.02685.01253.0931.00342.02409.01318.09554.00082.00667.01383.0988.00261.01969.01367.09636.00342.02409.01318.09375.00358.02457.01188.0835.00293.01969.01351.09408.00391.02637.01367.09407.00325.0223.01433.09733.00195.01335.01383.09212.00261.01758.01432.09586.00374.02474.01449.09587.00277.01774.01383.09066.00277.01823.01432.09261.00391.02539.01448.09261.00391.02539.015.09489.00261.01709.01367.08594.00342.02181.01481.09293.00423.02637.015.09245.00391.02425.01481.091.00277.01725.01416.08659.00472.02816.0153.09228.0039.02409.01563.09343.00391.02311.014.08333.0031.01856.01578.0931.00472.02734.01563.09212.00407.023.016.0931.0039.02214.014.08056.00456.02653.01562.08887.00538.03125.01578.08952.00423.02344.01579.08886.002.01107.01725.096.00439.02458.01628.09017.00521.028.01676.09245.00342.019.01562.0848.00391.02132.01742.09408.00423.02311.01725.09245.00488.02571.01742.09294.00179.00976.01758.09261.00407.02149.0179.0944.00423.0223.01839.095.00358.01872.01742.09.00244.01335.01856.09473.005.02588.01758.09017.005.02571.0184.09278.00374.01855.0166.084.00423.02133.01856.09228.005.02507.019.09472.00325.01628.01921.09407.00211.01026.02035.09944.00342.01661.01969.096.0044.02165.01985.09522.00342.01644.01774.08479.00456.02181.01969.09375.00423.02067.02.09457.00472.0223.02019.09423.00227.01124.01937.08984.00489.02246.01969.09212.00521.02393.02018.09293.00472.021.01807.08285.00407.01888.01969.08968.00651.02913.01953.08822.006.027.02.09034.0044.01953.01872.083.00472.02115.02.0892.00684.02962.02.08822.00553.02408.01986.08708.00309.01351.02165.09456.00439.019.02116.09131.00635.02767.02116.09065.00407.01742.02034.08659.00407.01741.02181.09261.0057.02409.02132.0905.00586.02457.022.0918.00326.01351.02067.0861.00537.023.02181.09017.00635.02588.02148.089.006.02474.02035.08333.00374.015.02263.09229.006.02474.0223.09017.006.02441.02262.09082.00489.01937.02067.08285.00488.01936.02262.09017.00684.027.02213.08805.00651.0254.02068.08138.006.02392.02181.08545.00553.02165.02393.09261.00537.02132.02392.09261.00521.01969.02067.07943.00586.02279.02328.08887.00683.0262.02295.08724.00716.02734.02165.0822.00765.029.01888.0708.00863.03288.02246.08382.008.02978.023.08513.00716.02669.02165.0804.00407.0153.02393.08822.0083.03011.02311.085.00749.027.02408.08822.00635.02327.02051.07389.00732.02686.02328.084.00911.033.02295.082.0083.02963.02165.07731.007.02539.02279.08057.00732.026.02425.0861.00781.0275.02523.08838.006.02132.0223.07829.00635.022.02506.08741.00814.028.02393.08334.00928.03206.02457.08431.00521.01774.02279.07845.00781.02669.02523.08594.00781.02686.0249.08479.00895.02979.0223.07552.00619.02083.02555.08627.00781.026.02556.08545.00846.02832.02572.08561.00748.0249.02165.07162.00781.02588.02556.08463.00878.02881.02588.08463.00847.028.02278.07422.01009.0332.02295.07455.00831.02669.0262.08529.00863.02783.02718.08707.00634.02035.02344.07552.00765.02441.02653.0848.00879.028.02653.08431.00895.02815.027.08529.006.019.02474.07813.00814.02539.02686.084.00927.02914.02718.08463.0083.02572.02344.07292.00977.03027.02474.07633.00928.02881.027.08317.00977.02995.02653.08122.00911.02783.02328.07064.00862.02637.02686.08154.01058.03223.02751.083.0083.02474.02669.08041.008.02376.0254.07617.00927.02767.02686.08024.01172.03483.027.08024.00846.02474.02523.07471.00813.02376.02735.08089.01107.03223.02685.07878.01139.0332.027.07878.0083.02408.02491.07243.00895.026.02864.08284.01042.03011.02783.08008.01107.03157.02376.0682.012.03451.0249.071.0109.03092.029.08252.0096.02751.02832.08008.01139.03206.023.06462.0096.02685.02849.08024.01188.03321.02832.07894.0109.03027.02426.06755.01513.04215.02279.06331.01172.03207.029.0804.01058.02914.03011.08252.00895.02441.02734.07519.00651.01791.03174.08626.00944.02555.03044.08269.01025.028.03028.08154.00911.02458.02572.06966.01074.02849.03076.08284.00977.02621.03108.08284.00993.02637.029.077.00668.01791.03076.08154.01009.02686.03158.08317.00911.02392.03272.08626.0083.02165.028.07324.00879.02312.03109.08089.01188.03109.03109.08056.00976.02539.03207.08285.00667.01725.03076.07943.00863.022.033.08464.0096.02506.03353.08545.00749.019.03157.08041.00586.01513.03548.09.00716.01823.03386.08545.01058.02653.03353.08463.00651.01644.03059.07666.00863.02165.03451.0861.00862.02148.03467.08627.00846.02116.03272.08089.00684.01676.03336.08252.00928.02311.03418.084.00944.02327.03483.08545.00814.01953.0319.078.00667.01627.03548.08643.00928.02262.035.0848.009.02181.036.08659.005.0122.03565.08562.006.01448.03694.08854.008.01937.03776.09017.00456.01091.03792.09017.00309.00716.04037.09586.0039.00912.03939.09326.00619.01432.03971.09359.002.00456.03923.092.00488.01123.03906.09131.00651.01513.0389.09066.00619.01416.03939.09163.001.00228.03874.08936.00879.02018.03792.0874.00716.01628.03956.091.00406.00944.04.09115.00293.00667.03988.091.00732.01693.03907.08838.00732.0166.03971.08968.00407.00928.03825.08643.00586.013.03874.08691.00976.022.03825.08562.00668.015.03889.08643.00342.00781.041.09114.00667.01465.04037.08936.007.01546.04086.09.00439.00976.03874.08529.006.01334.03939.08627.00977.02148.03808.08285.00977.02116.03922.08561.00293.00635.04053.08772.00749.01644.041.08838.00667.01465.04167.08935.0057.01237.04313.09262v.00016l.04378.09359.00619.01318.04264.09066.00521.01106.04362.09278.00293.00635.04313.0913.00342.00717.04411.09309.0052.01091.04362.09163.00489.01009c.02994.063.05973.12533.08984.18816l.00505.01041.0441.092.00472.00977.04574.09489.00049.00114.04443.09179.00537.01107.04379.09017.00618.01253.04362.08985.00586.012.09066.18522.00569.01156.04395.08935.00651.01319.0446.09049.00423.0083c.03027.06136.06152.12451.09212.18571l.00732.015.04395.08805.00586.01172.04639.09277h0l.04785.09538.00309.006.04557.09082.00651.013.04606.091.00293.006.09571.18864.0052.01009.04558.08935.00651.01286.09733.18994.00081.00147.04851.0944.0039.00732.04753.092.00455.00912.09848.18961.00195.00391.04964.095.00228.00423q.17945.34351.36165.6849l.0013.00244c.06983.1307.13884.25928.20931.38965l.001.00163c.24658.45605.49609.90755.75065,1.35872l.00163.00277a85.47092,85.47092,0,0,0,7.94808,11.69678,10.66661,10.66661,0,1,0,16.5944-13.40642A63.268,63.268,0,0,1,234.66667,192a64.07228,64.07228,0,0,1,64-64h0a63.89834,63.89834,0,0,1,32.55534,8.88314,10.66661,10.66661,0,1,0,10.87255-18.35466,84.9515,84.9515,0,0,0-13.74544-6.55778h0c-.08236-.0306-.16374-.06054-.24626-.09082l-.00179-.00081q-.12231-.04492-.245-.08952l-.00309-.00114q-.11988-.04369-.24007-.08691l-.012-.0044-.15869-.057-.00228-.00082-.076-.02718-.00976-.00358-.15886-.05648-.00651-.00228-.07259-.02571-.01042-.00374-.15608-.05486-.01514-.00537-.06429-.02262-.01481-.005q-.07764-.02733-.1556-.05436l-.01172-.00407-.06917-.02392-.01074-.00375-.15821-.05468-.01009-.00342-.06982-.02393-.01172-.00407-.1556-.05322-.01465-.005-.06982-.0236-.00814-.00277-.15625-.0529-.01709-.00586-.06755-.02262-.00944-.00326-.08024-.02685-.0026-.001-.07422-.02474-.01465-.00488-.06722-.0223-.01237-.00423-.07894-.02621-.00521-.00179-.06982-.02295-.01888-.00634-.06608-.02165-.01123-.00374-.07715-.02539-.01449-.00472-.0625-.02051-.01888-.00619-.0734-.02392-.00277-.00082-.08056-.0262-.00977-.00326-.064-.02067-.02263-.00732-.06754-.02181-.008-.00261-.07715-.02473-.01627-.00521-.0625-.02-.01758-.0057-.07682-.02458h-.00017l-.07845-.0249-.01595-.005-.063-.02-.01709-.00537-.0778-.02458-.00065-.00016-.074-.02344-.02442-.00765-.05794-.01807-.0166-.00521-.07829-.02441-.00391-.0013-.075-.02328-.01546-.00488-.06331-.01969-.01677-.00521-.077-.02377-.01075-.00325-.06559-.02018-.02392-.00733-.05616-.01725-.02018-.00618-.07373-.02247-.02-.00618-.05973-.01823-.02149-.00651-.05957-.01807-.01806-.00537-.07471-.02262-.01953-.00586-.05778-.01742-.02523-.00765-.06152-.01839-.01335-.0039-.07682-.02312-.01677-.00488-.062-.01855-.02148-.00635-.05713-.01693-.02181-.00635-.07178-.02132-.02458-.00716-.05452-.01611-.02539-.00733-.06364-.01871-.01188-.00358-.07389-.02149-.02523-.00732-.055-.016-.02376-.007-.06445-.01872-.01384-.00391-.07275-.021-.02409-.007-.05257-.015-.02865-.00831-.06657-.019-.01806-.00521-.06266-.0179-.02784-.00781-.05322-.01514-.02474-.007-.07178-.02034-.02018-.0057-.05859-.01644-.02556-.00716-.0511-.01432-.02979-.00847-.06982-.01953-.02881-.008-.04525-.01254-.0345-.0096-.04916-.01367-.02571-.00716-.07325-.02018-.02018-.00554-.05859-.01611-.02328-.00635-.05615-.01546-.02441-.00667-.0739-.02019-.01806-.00488-.06006-.01628-.02328-.00634-.06331-.01709-.01465-.00391-.07487-.02018-.02539-.00684-.05517-.01481-.02181-.00586-.06576-.01758-.01351-.00358-.07715-.0205-.01806-.00472-.06039-.01612-.02229-.00586-.07146-.01888-.006-.00163-.07764-.02034-.02132-.00553-.05908-.01547-.021-.00553-.06608-.01709-.01611-.00423-.07487-.01937-.01725-.00456-.06494-.01676-.016-.00407-.15821-.04053-.02116-.00537-.06022-.01546-.01953-.00488-.07763-.0197-.00945-.00244-.07031-.01774-.01985-.00505-.06006-.015-.02132-.00537-.07764-.01953-.00928-.00228-.06787-.01693-.02425-.006-.06055-.015-.01709-.00424-.0778-.0192-.01644-.00407-.06331-.01563-.022-.00537-.0638-.01562-.015-.00358-.07731-.01888-.02083-.005-.05648-.01367-.02881-.007-.05762-.014-.01855-.00439-.07585-.01823-.02278-.00553-.05762-.01368-.02393-.00569-.06315-.01514-.01546-.00358-.078-.01855-.01791-.00424-.06185-.01448-.02246-.00537-.07063-.0166-.00733-.00163-.077-.01807-.02539-.00586-.05534-.01286-.02425-.00569-.15739-.0363-.01856-.00423-.06055-.014-.0236-.00537-.154-.035-.027-.00619-.05517-.01237-.0236-.00537-.07748-.01741-.00878-.002-.06934-.01546-.02458-.00553-.05713-.0127-.02295-.005-.07877-.01742-.006-.00146-.07129-.01563-.02409-.00537-.06136-.01335-.01791-.0039-.08056-.01758-.00619-.00147-.07259-.01578-.021-.0044-.06218-.01351-.019-.00407-.07959-.01709-.01091-.00227-.06852-.01465-.021-.00456-.0682-.01449-.01139-.00244-.08073-.01709-.01547-.00325-.06429-.01351-.022-.00456-.06478-.01367-.016-.00326-.07763-.01627-.02214-.00456-.05632-.01155-.02718-.0057-.06787-.014-.0096-.002-.08138-.01677-.01465-.00293-.06543-.01334-.02067-.00423-.07568-.0153-.00407-.00082-.07959-.01611-.02149-.00423-.05973-.01205-.02246-.00439c-.05306-.01074-.10482-.021-.15788-.03141l-.02425-.00489-.05843-.01155-.02262-.0044-.07455-.01465-.01676-.00325-.068-.01335-.0205-.0039-.06006-.01172-.02311-.0044-.07992-.01546-.00244-.00049-.07682-.01465-.02133-.00406-.06461-.01237-.01628-.0031-.07829-.01481-.02115-.00407-.0599-.01123-.026-.00488-.05957-.01123-.01921-.00358-.0804-.015-.01139-.00211-.0695-.01286-.02132-.00391-.07276-.01351-.00553-.001-.08252-.01514-.01595-.00293-.06657-.012-.021-.00375-.0625-.01139-.01937-.00342-.08007-.01448-.013-.00228-.06754-.01205-.02262-.00406-.07194-.01286-.00684-.00114-.07845-.01384-.02523-.00439-.05941-.01042-.02229-.0039-.0669-.01172-.01448-.00261-.0765-.01318-.02556-.0044-.05566-.0096-.02865-.00488-.07373-.0127-.00358-.00048-.07812-.01335-.02539-.00423-.05729-.00977-.02621-.00439-.07633-.01286-.01449-.00228-.06494-.0109-.02588-.0044-.05876-.0096-.02441-.00407-.07731-.0127-.01546-.0026-.06283-.01025-.02848-.00456-.06039-.00993-.01888-.00309-.0804-.01286-.01351-.00228-.06689-.01058-.0236-.00374-.05957-.0096-.02442-.00391-.07666-.01205-.02083-.00325-.05908-.00928-.02767-.00439-.05876-.00912-.02262-.00358-.076-.01172-.02556-.0039-.05794-.00895-.02262-.00342-.0695-.01058-.01253-.00195-.08073-.01221-.02-.00309-.05973-.009-.02621-.0039-.06608-.00993-.01481-.00212-.07829-.01172-.0262-.00374-.055-.00814-.02669-.0039-.06071-.009-.02816-.00406-.06982-.0101-.02734-.0039-.05339-.00781-.02881-.00407-.0651-.00928-.02523-.00358-.06559-.00928-.03223-.00456-.05046-.00716-.02848-.00407-.06429-.00895-.03548-.00488-.057-.008-.03239-.00439-.04671-.00635-.03385-.00472-.07178-.00976-.026-.00358-.05713-.00765-.03044-.00424-.05631-.00748-.02263-.0031-.078-.01025-.02409-.00325-.05778-.00765-.028-.00359-.05925-.00781-.02115-.00276-.07813-.01026-.02523-.00325-.05566-.00717-.02995-.00374-.06461-.0083-.01286-.00163-.08269-.01041-.01725-.00228-.06364-.008-.02653-.00325-.063-.008-.01725-.00211-.07959-.00977-.02311-.00293-.05876-.00716-.02734-.00326-.068-.0083-.0114-.0013-.07877-.0096-.02816-.00326-.05436-.00651-.02995-.00358-.06494-.00765-.014-.00163-.07991-.00944-.02328-.0026-.05876-.00684-.02734-.00325-.15885-.01807-.02784-.00325-.05517-.00619-.028-.00309-.07861-.00879-.0083-.001-.07292-.008-.02392-.0026-.06381-.007-.01953-.00212c-.05452-.006-.10856-.01188-.16308-.01758l-.02442-.0026-.06315-.00684-.02-.00211-.0817-.00863-.01188-.00114-.06853-.00716-.026-.00277-.06168-.00635-.02116-.00211-.082-.0083-.01058-.00114-.071-.00716-.02311-.00228-.06462-.00651-.01936-.00195-.08073-.008-.01839-.00179-.06348-.00619-.02572-.00244-.06282-.006-.02-.00195-.08155-.00781-.01627-.00163-.06559-.00619-.02409-.00228-.07194-.00667-.00993-.001-.08431-.00765-.014-.0013-.07243-.00667-.01513-.0013-.08285-.00749-.002-.00016-.08675-.00781-.0114-.001-.07047-.00619-.02132-.00195c-.05485-.00472-.11035-.0096-.1652-.01416l-.02214-.00195-.06283-.00537-.022-.00179-.08252-.007h-.00146l-.08334-.007-.01725-.0013-.06413-.00537-.02506-.002-.07992-.00651-.01106-.00081-.07357-.00586-.02018-.00163-.068-.00521-.01676-.00146-.0835-.00635-.01025-.00081-.07585-.00586-.01693-.00114-.06917-.00521-.01741-.0013-.08448-.00635-.00765-.00049-.07373-.00537-.02474-.00179-.06608-.00488-.01595-.00114-.082-.0057-.019-.00146-.06673-.00456-.0223-.00163-.06136-.00423-.02442-.00163-.07975-.00537-.01937-.0013-.06364-.00423-.02636-.00179-.06983-.00456-.01139-.00081-.08236-.00521-.021-.00147-.06575-.00407-.021-.0013-.07031-.00439-.01448-.001-.0809-.00488-.02311-.00147-.06022-.00358-.028-.00163-.075-.00455-.00521-.00033-.08284-.00472-.02149-.0013-.06542-.00374-.02116-.00114-.08269-.00472-.00423-.00017-.07926-.00439-.02165-.00114-.06527-.00342-.02132-.00114-.08349-.00455-.00326-.00017-.07861-.00407-.02377-.00114-.06575-.00325-.01872-.001-.08382-.00423-.00977-.00049-.0734-.00358-.02327-.001-.0625-.0031-.02377-.00114-.082-.00374-.01172-.00049-.07226-.00325-.02165-.001-.069-.00309-.01628-.00065-.08219-.00358-.02116-.001-.06348-.00261-.02441-.001-.06429-.00277-.02116-.00081-.08252-.00326-.01579-.00065-.06738-.0026-.02409-.001-.06852-.0026-.01628-.00049-.08007-.00309-.02767-.001-.05632-.00195-.02881-.001-.06136-.00212-.02278-.00081-.07894-.0026-.0267-.001-.05761-.00179-.02767-.001-.07569-.00228-.00651-.00032-.0804-.00244-.03027-.00082-.05583-.00162-.02653-.00082-.08252-.00228-.0026-.00016-.08073-.00212-.0236-.00065-.064-.00162-.02116-.00066-.085-.00211h-.00211l-.08025-.002-.02555-.00049-.062-.00147-.02214-.00049-.08252-.00179-.01546-.00032-.06917-.00147-.02344-.00049-.06771-.0013-.01709-.00032-.084-.00163-.01644-.00033-.06592-.00114-.02929-.00048-.06218-.001-.01986-.00033-.08268-.0013-.01937-.00032-.06526-.001-.02539-.00033-.068-.00081-.01562-.00032-.084-.001-.01888-.00016-.064-.00082-.02881-.00016-.06641-.00081-.0153-.00017-.0817-.00065-.0267-.00016-.05891-.00049-.02686-.00032-.0752-.00049h-.007l-.0848-.00049-.02116-.00016-.06348-.00033h-.026l-.08073-.00033h-.0013l-.08382-.00032h-.02425l-.06283-.00016h-.10758Z" style="fill:#c26765"/><ellipse cx="277.33333" cy="170.66667" rx="48.26898" ry="36.20174" transform="translate(-39.4505 246.09139) rotate(-45)" style="fill:#f2ccca"/><path d="M298.66667,64a128,128,0,1,0,128,128A127.99966,127.99966,0,0,0,298.66667,64Zm0,213.33333A85.33333,85.33333,0,1,1,384,192,85.33356,85.33356,0,0,1,298.66667,277.33333Z" style="fill:#c0e6d9"/><path d="M389.17633,282.50967a127.99966,127.99966,0,0,0,0-181.01934l-.07549-.0755-.03073-.03049-.04535-.04535-.035-.03476-.041-.041-.03418-.034-.04327-.043-.03223-.032-.04546-.045-.0298-.02958-.04673-.04626-.03153-.03131-.04477-.0443-.03188-.03142-.04466-.044-.03326-.033-.04339-.0427-.0328-.03234-.04465-.044-.03234-.03165-.04846-.04776-.02727-.02659-.05076-.04983-.02727-.02682-.15365-.15019-.01415-.01392-.06353-.06192-.02463-.02394-.04983-.04868-.03511-.034-.04315-.042-.03234-.03142-.04477-.04339-.03154-.03061-.04753-.04615-.02969-.02878-.04627-.04465-.03234-.03119-.046-.04465-.03062-.02947-.04914-.0473-.02728-.02635-.05156-.04972-.02693-.02578-.04833-.0465-.03016-.029-.04868-.04661-.029-.02785-.06445-.06169-.012-.01151-.07838-.07492-.01162-.01094-.06664-.06364-.02129-.02037-.05628-.05352-.0244-.02325-.05455-.05179-.02693-.02578-.04868-.04615-.03315-.0313-.04385-.04155-.03637-.03452-.04166-.03936-.03418-.03234-.045-.04247-.03337-.03154-.04512-.04258-.03211-.03027-.04615-.04339-.0328-.031-.04926-.04626-.02658-.025-.0541-.05063-.02578-.02417-.06226-.05835-.01485-.01393-.06824-.06387-.02613-.02429-.06445-.0603-.01243-.01151-.06514-.06077-.02348-.02187-.05558-.05167-.02705-.025-.05006-.04661-.02889-.02681-.05283-.04892-.02532-.02347-.05087-.047-.03072-.02843-.04834-.04465-.03131-.029-.046-.04236-.03269-.03015-.04914-.04523-.029-.0267-.05076-.04661-.02773-.02567-.05812-.05328-.0198-.01819-.07481-.06836-.00322-.003c-.08056-.07366-.16158-.14778-.24226-.22109l-.01013-.00921-.06779-.0618-.02382-.02152-.05455-.04972-.02636-.02382-.05409-.049-.02509-.02279-.056-.05075-.02175-.01968-.05858-.05283-.0229-.0206-.0564-.05087-.02393-.02163-.05444-.04915-.02705-.02428-.05535-.04983-.02256-.02026-.05709-.0511-.02463-.0221-.06514-.05846-.01254-.01117c-.08022-.0717-.16274-.14547-.24307-.21705l-.00955-.00841-.07147-.06364-.01243-.011-.0671-.0595-.0183-.01623-.06214-.05524-.02107-.01853-.05731-.05087-.025-.022-.059-.05214-.01818-.01611-.06456-.057-.01543-.01358-.06732-.05927-.0137-.01208-.06629-.05824-.01577-.01392-.07055-.06181-.00909-.00817q-.2864-.25083-.57406-.50017l-.00817-.00725-.07539-.06526-.00506-.00437-.07654-.06618-.00736-.00621-.07469-.06457-.00795-.00679-.07273-.06261-.01105-.00944c-.27414-.23593-.55105-.47209-.82668-.70538l-.00415-.00345-.0801-.06767-.002-.00173-.07941-.067-.00587-.005-.07941-.06675-.00242-.00219-.08205-.06893-.001-.00081q-.41847-.35148-.83808-.6979l-.00161-.00138a127.17418,127.17418,0,0,0-36.70671-21.1743,10.66667,10.66667,0,1,0-7.43164,19.99705,106.72818,106.72818,0,0,1,38.18146,175.41151h0a106.74422,106.74422,0,0,1-173.456-33.29467,10.66661,10.66661,0,1,0-19.60288,8.41623,127.227,127.227,0,0,0,18.76008,30.75719l.00449.00541c.04017.04868.08022.09725.12061.14593l.00058.00081.06076.07342.00058.00081.05939.07158.00437.0053q.42917.51756.86363,1.03028l.0008.0008.06135.07239.00126.0015.05709.06721.00863.01024.05512.0648.00714.00828.05444.06388.00978.01162.05478.06422.00668.00783.05593.06537.00817.00955.0564.06606.00345.00392c.22834.26677.45679.53113.68766.79653l.00656.00748.05535.06341.00933.0107.05248.06031.01254.01439.0526.06.01162.01346.0488.05571.01922.022.04615.05259.01726.01957.04811.055.016.01807.051.05812.01047.01186.05433.06168.01012.01151.05559.063.00645.00736.05731.06491.01036.01151.054.06111.01231.01393.05283.05973.00886.00978c.12188.13753.24548.27633.36805.4134l.01335.015.04673.052.02048.023.04247.0473.0236.02636.045.05006.0206.02291.04442.04948.02152.02383.04627.05133.01922.02129.04638.05144.01979.02187.04742.05248.01888.02095.04488.04971.0244.02694.0412.04534.02923.03223.035.03867.03257.03579.03648.04016.02843.03119.03821.0419.028.03072.03993.04385.02555.02809.04074.04442.02256.02486.13684.14927.041.04465.02866.03142.04017.04362.02958.03211.03648.03971.0351.03809.03361.03637.03372.03671.033.0358.0343.03705.0351.03787.034.03671.03153.03407.03683.03982.03372.03625.033.03556.03384.03637.03384.03637.03682.03959.03119.03349.03557.03833.03268.035.038.04075.03015.03222.03683.03936.032.0343.03786.04039.031.033.03315.03545.03671.039.03268.03475.03488.03718.04016.0427.028.0298.04373.04627c.04316.04592.0862.0915.12959.13742l.03257.03441.02878.03038.04074.043.03015.03177.03879.04086.03326.0351.03429.03614.03568.03751.03533.03718.02993.0313.03982.04189.0313.03269.03775.03959.03176.03338.0366.03821.03418.03579.03672.03832.0305.03188.03936.041.03211.0335.03682.03821.03234.03372.03729.0389.03292.03406.0389.04028.02958.03073.0412.04282.02969.03061.04051.04212.02889.02981.04155.04293.02923.03015c.04776.04937.09161.09437.13949.14363l.0153.01577.05525.05685.02543.02613.04385.045.02854.02923.04408.04523.02325.02371.04627.04742.02831.029.04224.04316.03038.03084.03878.03971.03315.0336.03855.03948.03131.03176.03936.04005.03107.03154.04051.0412.03073.03119.03936.03982.03154.032.04108.04155.02958.02981.04051.041.03142.03165.04005.04051.03085.03108.04143.04166.02923.02946.04742.04765.02313.02336.05087.0511.02072.02072.05225.05248.01991.01991.07147.07147h0a127.99967,127.99967,0,0,0,181.01933,0Z" style="fill:#70c5aa"/><path d="M409.38558,264.84082a10.64932,10.64932,0,0,0-8.51921,4.23779q-.103.13648-.20686.27295l-.001.0013c-.076.10027-.152.19987-.22852.3l-.0096.01253c-.054.07081-.10758.14063-.16178.21127l-.012.01562-.05159.06706-.01221.01595-.09733.12647-.01237.016-.04769.06184-.01969.0254-.04672.06038-.01595.02067-.08528.11-.02653.03434-.042.05387-.02653.03418-.082.10531-.01969.02523-.04085.0524-.0306.03923-.04118.05257-.035.04492-.05583.07113-.04183.05339-.03271.04166-.0446.05681-.02865.03629-.06591.08366-.02946.03743-.04509.05713-.02865.03614-.05533.07-.02751.03483-.05973.07536-.02816.03532-.04769.06022-.02572.03223-.071.089-.01872.0236-.05582.07-.02556.0319-.06266.07828-.01025.01286-.07325.09147-.02262.02816-.056.06983-.02067.02571-.07471.09294-.00732.00895-.068.08431-.02068.02572-.05843.07242-.01953.02409-.07389.09115-.01644.02018-.061.07536-.019.02344c-.05045.06217-.103.12662-.15364.1888l-.01742.02132-.06771.08285-.00911.01123-.07943.097-.00911.01123-.071.08643-.01286.01579-.15787.19173-.01416.01709-.06966.08463-.01042.01237-.08089.098-.00261.00326-.07356.08854-.0184.02214-.0734.08854-.00375.00456-.07845.09407-.01709.02067-.0651.078-.01449.01726-.078.09342-.01188.014-.06657.07959-.02.02392-.06689.07976-.01107.013-.07829.0931-.01546.01839-.064.07584-.01921.02279c-.0516.0612-.10482.124-.15641.18506l-.01856.02181-.06478.0765-.01546.01806-.07715.09066-.0179.02116-.06071.07129-.0223.0262-.07047.08252-.00765.00895-.07748.0905-.02116.0249-.05729.06673-.02409.02816-.0747.08675-.01774.02067-.061.071-.0249.029-.06234.07226-.01546.01791-.07422.08577-.02669.03093-.05583.06445-.02327.02685-.0752.08659-.01969.02263-.05746.06608-.029.03336-.05176.05925-.02832.03255-.07145.08171-.02816.03206-.05094.05843-.029.033-.06185.07048-.03369.03841-.0542.06168-.03467.03923-.04557.05176-.03109.03548-.07048.07959-.033.03743-.04573.05176-.03418.03874-.051.05745-.03808.04281-.05908.06641-.03532.03987-.04086.04574-.03922.04427-.06022.06738-.04655.05208-.03467.0389-.04476.05-.0332.03711-.06136.06852-.04785.05323-.04.04443-.03679.041-.041.04558-.0402.04459-.065.07211-.0402.04443-.03939.04346-.03824.04232-.03972.04394-.06738.07422-.04.04411-.03629.04-.04558.05013-.02685.02929-.083.09115-.02946.03223-.04671.0511-.03125.03418c-.05388.05892-.10824.11817-.16228.17709l-.02148.02343-.05176.05632-.02.02165c-.05924.06445-.11718.12727-.17643.19156l-.00814.00863q-.094.10181-.18815.20313l-.00488.0052-.06234.06722-.00537.00586c-.06282.06755-.12467.134-.18782.2015l-.00879.00944q-.12867.13794-.258.27555l-.00032.00033c-.06511.06934-.12989.13818-.19515.20719l-.00342.00375c-.15251.16146-.30648.324-.4598.48486l-.00179.00179A128.78562,128.78562,0,0,1,380.015,290.83024l-.00423.00358q-.10791.08862-.21582.17725l-.00667.00553-.06576.05388-.01692.01383c-.06674.05469-.13233.10824-.19906.16276l-.02262.01839-.06348.05176-.01237.01009c-.04053.03288-.08057.06559-.12109.09831l-.02133.01741-.05566.04509-.03581.02913-.05241.04232-.034.02751-.08968.07259-.04313.03467-.04411.03548-.05127.04134-.06039.0485-.06087.049-.04232.034-.04931.03955-.04232.03385-.07878.063-.03287.02621-.06608.05289-.03223.02572-.07894.06283-.01139.009-.09522.07568-.02034.01611-.08041.06381-.01774.01416-.19791.15641-.00944.00749-.09815.07731-.002.00163-.20834.16357-.00179.00146c-.2111.16553-.42561.33252-.63785.49675a10.6667,10.6667,0,0,0,13.064,16.86556,150.08642,150.08642,0,0,0,27.89-28.21826,10.66747,10.66747,0,0,0-8.50325-17.09652Z" style="fill:#230022"/><path d="M298.66667,85.33333a106.671,106.671,0,0,0-63.877,192.09864A10.66666,10.66666,0,1,0,247.575,260.35433a85.803,85.803,0,0,1-20.23746-21.4974l-.002-.00293q-.21093-.32055-.41927-.64323l-.001-.00179c-.057-.08805-.11311-.17545-.16959-.26367l-.00488-.00765-.02979-.04638-.00618-.00977-.03109-.04883-.00244-.00374c-.0555-.08724-.11052-.17367-.16586-.26107l-.00813-.01286-.029-.04573-.00455-.00733c-.07894-.125-.15674-.249-.235-.37435l-.00553-.00878c-.04379-.07015-.08643-.13884-.13005-.209l-.00309-.005-.03125-.05046-.00293-.00472-.02979-.04818-.00765-.01253-.0288-.04671-.00033-.00033-.09717-.15788-.00455-.00748-.02816-.0459-.00749-.01221-.02555-.04166-.01156-.01888-.02523-.04135-.00862-.014-.0267-.04395-.00195-.00309-.054-.08871-.01318-.02164-.02571-.04248-.00733-.01205-.0262-.04329-.01123-.01856-.02409-.03987-.01074-.01758-.02409-.04-.01237-.02035-.08155-.13574-.01009-.01676-.02148-.03565-.01546-.02571-.022-.03679-.01188-.01985-.02376-.03988-.008-.01318-.0913-.15332-.0018-.0031-.026-.04394-.01058-.01774-.02392-.04037-.01074-.01823-.02312-.03906-.01367-.02295c-.0389-.06575-.077-.13037-.11556-.19629l-.00716-.0122-.02718-.04623-.00716-.0122-.02556-.04362-.00976-.01693-.02555-.04362-.00424-.00716c-.02815-.048-.05729-.09831-.08545-.14649l-.01106-.0192-.02214-.03825-.012-.02067-.02149-.03711-.015-.02572-.02116-.03678-.00911-.01579-.07455-.12907-.01823-.0319-.01806-.03141-.01612-.02783-.0192-.0337-.0153-.02653-.02084-.03645-.01416-.02491-.01888-.03287-.01757-.03093-.03744-.06559-.01237-.02181-.02213-.03874-.0114-.02-.02034-.03613-.01693-.02978-.01758-.03109-.01644-.02881-.0179-.03174-.02165-.03825-.01269-.02262-.03353-.05941-.01319-.02344-.02213-.03938-.013-.02328-.022-.03906-.01449-.02588-.02116-.03792-.013-.02312-.02213-.03955-.014-.02506-.03337-.0599-.00814-.01465-.02522-.04541-.0153-.02767-.01986-.03564-.01579-.02848-.01741-.03158-.01693-.03027-.02-.03613-.014-.02572-.03239-.05859-.00114-.00212-.03271-.05925-.019-.03483-.01433-.02587-.01985-.03614-.01481-.027-.01709-.03141-.01823-.03336-.01628-.02963-.023-.042-.00976-.0179-.03305-.06055-.01074-.02-.02588-.04736-.00813-.01514-.02474-.04573-.01221-.02247-.02246-.0415-.01253-.02295-.02133-.03971-.01269-.0236-.033-.0612-.00733-.01367-.02653-.04932-.012-.0223-.02214-.04134-.01188-.02213-.02181-.04069-.01416-.02653-.02-.03744-.01253-.0236-.02572-.04818-.012-.02246-.029-.05468-.01351-.02523-.01807-.03418-.01676-.03158-.01856-.035-.01334-.02539-.0223-.04232-.01025-.01937-.02849-.05387-.00537-.01009-.0332-.06315-.0096-.0184-.02377-.04508-.01123-.02165-.02213-.04215-.01319-.02523-.01953-.03727-.01367-.02621-.019-.03662-.01481-.02832-.0319-.0612-.002-.0039-.02962-.05713-.01383-.02653-.01937-.03744-.01481-.02864-.01693-.03272-.01579-.03043-.01823-.03565-.01448-.028-.01888-.03646-.02377-.04639-.02-.0389-.015-.02929-.0179-.035-.016-.03092-.01611-.03174-.01546-.03027-.01709-.03337-.01611-.03174-.01872-.03662-.01221-.02392-.03125-.06153-.01123-.0223-.02165-.0428-.01171-.02295-.02084-.04134-.01188-.02344-.02213-.04395-.01026-.02034-.02148-.04264-.01172-.02328-.03158-.06282-.00179-.00375-.03011-.06006-.01009-.02018-.0223-.04476-.0109-.02181-.02067-.04118-.01286-.02587-.02214-.0446-.0083-.0166-.03174-.064-.00048-.001-.03256-.0656-.00879-.01757-.02181-.04428-.01285-.0262-.02084-.042-.01009-.02051-.02327-.04736-.0083-.01693-.02865-.05827-.00309-.00651-.0332-.06754-.00082-.00163-.03125-.06413-.00553-.01123-.02588-.05306-.00863-.0179-.02523-.0516-.00585-.012-.027-.056-.0057-.01172c-.033-.06787-.06527-.13477-.098-.2028l-.00212-.0044-.02848-.05891-.00635-.01335-.028-.05827-.00342-.00732-.06494-.13575-.00179-.0039-.02816-.05892-.00928-.01953-.02474-.05192-.00439-.00944-.028-.05908-.00455-.00944q-.04835-.1023-.09652-.20459l-.00081-.00147-.02995-.064-.00472-.0101-.02849-.06071-.0026-.00553c-.03206-.06836-.06413-.13721-.096-.20573l-.00195-.00439-.02946-.06348-.00342-.00716-.027-.05859-.006-.013-.02848-.06152-.00147-.00293c-.03157-.06868-.06185-.13444-.09326-.20312l-.00765-.01661-.02376-.05175-.00651-.01416-.02621-.05762-.00374-.00814c-.0415-.09082-.08382-.18424-.125-.27523l-.00228-.00537-.02864-.06331-.00277-.00619-.02783-.06168-.00358-.00814-.06169-.13737-.00179-.00407-.028-.06282-.005-.01123-.0249-.05583-.00586-.01335-.02767-.06217-.00147-.00342c-.03076-.069-.06022-.13542-.09065-.20475l-.007-.01579-.02409-.05453-.00472-.0109-.02621-.05941-.00374-.00879c-.0402-.09147-.08057-.18408-.12044-.27588l-.00326-.00765-.02734-.06282-.00261-.00619-.02783-.064-.00228-.00554c-.03971-.09179-.08073-.18733-.12011-.27929l-.002-.0044c-.03938-.092-.08056-.189-.11963-.28125l-.00048-.00114-.05957-.14078-.00033-.00065c-.03988-.09473-.07894-.188-.11849-.28288l-.0013-.00309c-.05843-.14-.11719-.28174-.17481-.422l-.00293-.00716c-.03808-.09261-.07617-.1862-.11393-.279l-.00439-.01074-.02442-.06022-.00325-.008-.02556-.06316-.00292-.00716c-.0376-.09293-.07553-.18717-.1128-.28043l-.00325-.00814-.02458-.06152-.00391-.00961-.02474-.062-.00293-.00732c-.03808-.09571-.074-.18685-.11181-.28272l-.00228-.00537c-.03678-.09342-.07406-.18864-.11051-.28206l-.00359-.00961-.02376-.06087-.00374-.00976-.02409-.06218-.00293-.00732c-.02848-.07341-.054-.14-.08236-.21338l-.00049-.00114-.02587-.06738-.00375-.00977-.02344-.0612-.00341-.00911-.02377-.062-.00325-.00895c-.01839-.04818-.03548-.09294-.05371-.14128l-.0013-.00326-.0254-.06705-.00292-.008-.023-.06055-.00472-.01253-.02344-.06217-.00244-.00651c-.0267-.07113-.05257-.14-.0791-.21127l-.00538-.01432-.01985-.05338-.00668-.01807-.0205-.05518-.00472-.01285c-.035-.09424-.07032-.19-.105-.28435l-.001-.00293-.02474-.06754-.00244-.00684-.0236-.06461-.00261-.00668-.07731-.21321-.00342-.00944-.02164-.06006-.005-.01384-.02278-.06347L218.34,220.868c-.02588-.07178-.05127-.14258-.07683-.21435l-.0039-.01107-.022-.06185-.00309-.00846-.0223-.063-.00293-.00847c-.03466-.09749-.06689-.18912-.10107-.28678l-.00244-.00684-.02262-.06494-.00245-.007-.02278-.06543-.00244-.007-.07553-.21745v-.00033l-.02294-.06673-.0044-.01269-.02213-.06413-.00147-.00456q-.03711-.10841-.07406-.21663l-.00244-.00717-.023-.06787-.00048-.00114-.02377-.07047-.00146-.00456c-.0332-.09814-.06511-.1932-.098-.2915l-.00065-.00212-.02344-.07031-.00147-.00407-.02343-.071-.00049-.00114c-.03174-.09571-.06429-.19466-.09571-.29053l-.00309-.00944-.02165-.06608-.0013-.00391c-.02376-.07275-.04736-.14518-.0708-.21793l-.00325-.00961-.0197-.06119-.00439-.01351-.01937-.06022-.00309-.00961c-.03174-.09879-.062-.19352-.09343-.29248l-.00016-.00049-.02262-.07145-.00147-.00456-.02116-.06689-.00244-.00765c-.03044-.09652-.06152-.19547-.09147-.29215l-.00163-.00489-.02181-.07-.001-.0031c-.02263-.07308-.04493-.14534-.06739-.21858l-.00423-.01351-.01774-.05762-.00456-.0153-.01741-.05648-.00505-.0166-.01985-.06527-.00082-.0026q-.03345-.10986-.06657-.22005l-.00244-.00781-.01969-.0656-.00261-.00862-.01839-.061-.00407-.01367c-.022-.07341-.0428-.14339-.06461-.217l-.00261-.00879-.0179-.06087-.00537-.01774-.01644-.05567-.00407-.014-.01888-.06446-.00212-.00716-.04248-.145-.00309-.0109-.01839-.06315-.00293-.00977-.01807-.0625-.00325-.01139-.01921-.06641-.00146-.00521c-.02133-.07373-.04216-.14632-.06315-.22l-.00277-.00977-.01872-.06542-.00179-.00635-.019-.06673-.00228-.00831q-.0315-.11084-.0625-.22184l-.00065-.0026-.01839-.06559-.00489-.01709-.01611-.05778-.00358-.01319-.01872-.06738-.001-.00358c-.01335-.04753-.02751-.09912-.0407-.14665l-.00341-.01253-.01677-.0612-.00309-.01139-.01742-.06315-.00276-.01026-.01888-.06933-.00065-.002c-.02019-.07421-.04053-.14957-.06055-.22379l-.00163-.00619-.01774-.06575-.00309-.01156-.01693-.063-.0026-.00992c-.01986-.07422-.03955-.148-.05925-.22234l-.001-.00406-.01791-.06788-.00309-.01171-.01628-.06169-.00309-.01188-.01774-.06755-.00114-.00455-.03857-.14779-.00261-.01042-.01692-.06478-.00212-.0083-.01693-.06591-.00228-.00863-.01855-.07194v-.00016c-.01921-.07455-.03841-.14991-.05729-.22461l-.00244-.00977-.01563-.06152-.0039-.01563-.01465-.05745-.00407-.01644-.055-.21973-.00227-.0096-.0153-.06169-.00407-.01611-.015-.06038-.00293-.01189-.016-.06461-.00211-.00879-.03614-.14746-.00292-.01237-.01482-.06039-.00374-.01562-.01383-.05745-.0044-.01791-.01432-.05908-.00293-.01221-.01644-.06852-.0013-.005-.03516-.14714-.00325-.014-.01433-.06006-.00341-.015-.01368-.05745-.00407-.01726-.01562-.0664-.00114-.00472-.035-.14942-.00244-.01025-.014-.06071-.0044-.019-.01351-.05827-.00293-.01221-.01529-.06641-.00163-.00748-.034-.14779-.00309-.01432-.01367-.0599-.00358-.01546-.01319-.05778-.00374-.01709-.01384-.06071-.0026-.01172c-.01693-.07536-.033-.14746-.0498-.223l-.00261-.01139-.014-.063-.00276-.0127-.01335-.06022-.00358-.01627-.01514-.06918-.00049-.00163-.03336-.15332-.00033-.00081-.01513-.06982-.00342-.01579-.01286-.05957-.00293-.014-.014-.06478-.00179-.00862-.0319-.14942-.00228-.01025-.01367-.06478-.00244-.01156-.01318-.06217-.00326-.01546-.01269-.06022-.00277-.01351c-.016-.07585-.03125-.14926-.04688-.2251l-.0013-.00651-.01432-.06869-.00179-.00895-.01384-.06738-.00162-.00765c-.01612-.07878-.0306-.15039-.04655-.22917h0l-.01449-.07145-.00293-.015-.012-.0599-.00293-.01448-.0127-.06381-.00211-.01041-.02963-.14991-.00211-.0109-.012-.061-.00423-.022-.01025-.05192-.00407-.02067-.01123-.05811-.00293-.015-.04362-.22575-.00114-.00635-.013-.0677-.00228-.01237-.01123-.05876-.00374-.02018-.01205-.064-.0013-.00683-.02848-.1517-.002-.01041-.01155-.06169-.00342-.01872-.01091-.05908-.00276-.01481-.01107-.06022-.00277-.01481-.01334-.07292-.00017-.001-.0135-.07389-.00391-.02165-.00928-.0511-.00439-.02425-.00912-.051-.00407-.0223-.01058-.05908-.00211-.012-.0114-.0638-.00227-.01319-.02621-.14746-.00293-.01725-.01041-.05941-.00293-.01611-.00961-.055-.0039-.02294-.01026-.05827-.00228-.01384-.0262-.15185-.00081-.00489-.01123-.06624-.00375-.02148-.00911-.05388-.00326-.01953-.00928-.0542-.00374-.02278-.01172-.0695-.00016-.00147-.01237-.074-.00293-.01774-.00993-.05958-.0026-.016-.00912-.05533-.0039-.02377-.00895-.05436-.0031-.01855-.01058-.06462-.0013-.00879-.02458-.15137-.00227-.01448-.00944-.05876-.00326-.02034-.0083-.05209-.00407-.0262-.00846-.05322-.00293-.01807-.02328-.14925-.00293-.01856-.00814-.05224-.00423-.02783-.00781-.05046-.00325-.02116-.009-.05745-.00244-.01612-.01074-.07047-.00065-.00423-.01123-.07422-.00342-.02279-.00765-.05062-.00374-.02523-.00749-.04964-.00407-.02718-.007-.04736-.00374-.02572-.00716-.0485-.00407-.02751-.021-.14371-.0039-.02653-.007-.04834-.00407-.02816-.00619-.04313-.00455-.03158-.00684-.04752-.00358-.02523-.00863-.06071-.00179-.01286-.01041-.07292-.00261-.01953-.00765-.05469-.00374-.02685-.00651-.04639-.00374-.02734-.00668-.04769-.0039-.02832-.00765-.0555-.00212-.01611-.00977-.07113L214.111,203.57l-.006-.04558-.00358-.02636-.00651-.048-.00342-.0262-.007-.0516-.00309-.02343-.00684-.05225-.00309-.0223-.00976-.07422-.00017-.00211-.00944-.07211-.00276-.02148-.00668-.05094-.00358-.02816-.00586-.04558-.0039-.02994-.007-.05485-.00195-.01514-.009-.07145-.00065-.005-.00944-.07454-.0026-.02116-.00635-.05094-.00358-.02849-.006-.049-.00326-.02571-.00586-.047-.00342-.02881-.00585-.04785-.00326-.02686-.00863-.07112-.00309-.02491-.0057-.04817-.00358-.02963-.00553-.04589-.00358-.03012-.00521-.04508-.00325-.02767-.006-.05029-.00293-.02523-.01692-.14648-.00277-.02377-.00586-.05208-.00309-.02669-.005-.04395-.00374-.03385-.00488-.04248-.00342-.03028-.01644-.148-.00163-.016-.00635-.05794-.00276-.02539-.0057-.05111-.00228-.02229-.006-.05551-.00228-.02148-.00667-.06234-.0013-.01155-.008-.0752-.00163-.01611-.00634-.06022-.00228-.02116-.00537-.05241L213.79,200.883l-.00537-.05339-.00228-.02132-.00635-.06169-.00114-.01237-.01546-.15267-.002-.01985-.00521-.05323-.00277-.02718-.00472-.04769-.00293-.03011-.00439-.04492-.00277-.029-.00553-.05664-.00163-.01758-.00733-.07585-.001-.01074-.00586-.06185-.00244-.026-.00472-.05045-.00244-.02572-.00456-.05013-.00228-.02507-.00537-.05875-.00147-.016-.00683-.07487-.00163-.01677-.00521-.05843-.002-.02295-.00472-.05289-.00228-.02572-.00456-.05094-.00211-.02426-.00456-.05224-.00212-.02474-.01269-.14925-.00179-.02018-.00456-.055-.00228-.02555-.00407-.04883-.00211-.02734-.0044-.05323-.00179-.02181-.00521-.06347-.001-.01172-.006-.07487-.00163-.01969-.0044-.05648-.002-.02344-.00407-.05322-.00179-.02344-.00423-.0542-.00179-.022-.00537-.071-.00016-.00211-.00586-.078-.00114-.01465-.00472-.06185-.00147-.02018-.00407-.05664-.00163-.02116-.00406-.05632-.00163-.02164-.00391-.05486-.00163-.022-.01074-.15332-.00081-.01009-.0044-.064-.00146-.02312-.00358-.05094-.00179-.028-.00358-.0516-.00147-.02246-.00423-.063-.00081-.01318-.00489-.07585-.00114-.016-.00374-.05957-.00146-.02246-.00358-.05583-.00131-.022-.00325-.05094-.00179-.02881-.00293-.04785-.00179-.02767-.0044-.07243-.0013-.0223-.00309-.05339-.00163-.0262-.00293-.05029-.00163-.02784-.00276-.04866-.00163-.02718-.00277-.05-.00163-.02734-.00325-.05892-.00081-.01579-.00407-.07373-.00131-.02425-.00292-.05208-.00147-.028-.00244-.047-.00163-.02881-.00277-.055-.001-.01855-.00781-.15463-.00066-.0109-.00309-.0638-.00114-.02491-.0026-.05273-.00114-.02311-.00244-.0529-.0013-.02637-.00245-.05175-.00114-.02426-.00309-.06868-.00114-.02572-.00244-.0555-.0013-.02767-.00195-.04687-.00147-.03158-.00195-.04557-.0013-.03044-.002-.04638-.00114-.02914-.0026-.06445-.00049-.01025-.00293-.07585-.00081-.021-.00228-.05517-.001-.02491-.00179-.05045-.00114-.02979-.00179-.0485-.001-.026-.002-.05469-.00081-.02246-.00261-.07487-.00065-.01872-.002-.05452-.001-.03158-.00162-.04687-.001-.02865-.00146-.04671-.001-.03044-.00163-.0485-.00081-.02783-.00147-.04883-.00179-.05713-.00114-.04183-.001-.03108-.00131-.0459-.00081-.03174-.0013-.04541-.00082-.03-.0013-.04834-.00081-.02767-.00374-.15023-.00066-.02539-.00114-.05159-.00065-.02865-.00114-.04573-.00065-.03207-.00114-.049-.00048-.02555-.00131-.05518-.00032-.02213-.00163-.07585-.00016-.01172-.0013-.0638-.00049-.02653-.00082-.05029-.00048-.02669-.001-.0503-.00049-.02832-.00081-.05029-.00033-.02588-.001-.0612-.00048-.03206-.00082-.05811-.00032-.02425-.00082-.0529-.00032-.02522-.00065-.0542-.00033-.02344-.00065-.05241-.00033-.02653-.00065-.062-.00016-.01367-.00065-.07683-.00016-.0179-.00049-.05729-.00033-.02913-.00032-.04541-.00033-.0337-.00032-.04589-.00017-.02816-.00032-.05664-.00016-.01986-.00033-.07682v-.01074l-.00033-.06462-.00016-.02523-.00016-.05371v-.02523l-.00016-.05013v-.02832l-.00017-.05371V192h0a85.33339,85.33339,0,0,1,85.33334-85.33333,10.66667,10.66667,0,0,0,0-21.33334Z" style="fill:#70c5aa"/></g></svg>