<svg xmlns="http://www.w3.org/2000/svg" viewBox="0 0 512 512"><title>Artboard 136</title><g id="Networking"><path d="M39.83333,482.83333a10.63207,10.63207,0,0,1-7.54166-3.125c-19.5625-19.55208-12.5-60.13541,20.4375-117.35416,30.29166-52.60417,79.125-113.73959,137.5-172.125C298.6875,81.77083,437.0625-10.40625,479.70833,32.29167A10.66552,10.66552,0,0,1,464.625,47.375C443.54167,26.3125,334.60417,76.03125,205.3125,205.3125,148.20833,262.41667,100.60417,321.96875,71.20833,373,40.125,427.03125,38.5,455.76042,47.375,464.625a10.66667,10.66667,0,0,1-7.54167,18.20833Z" style="fill:#70c5aa"/><path d="M29.22628,39.7854a10.63211,10.63211,0,0,1,3.125-7.54166c19.55209-19.5625,60.13542-12.5,117.35417,20.4375,52.60417,30.29166,113.73958,79.125,172.125,137.5C430.28878,298.63957,522.46587,437.01457,479.768,479.6604a10.66552,10.66552,0,1,1-15.08333-15.08333c21.0625-21.08333-28.65625-130.02083-157.9375-259.3125C249.643,148.1604,190.09087,100.55624,139.05962,71.1604,85.02837,40.07707,56.2992,38.45207,47.43462,47.32707A10.66667,10.66667,0,0,1,29.22628,39.7854Z" style="fill:#70c5aa"/><circle cx="256" cy="256" r="213.33333" style="fill:#9f4979"/><ellipse cx="223.0303" cy="190.22222" rx="137.69697" ry="126.22222" style="fill:#c67397"/><path d="M336.10417,58.35677a211.81375,211.81375,0,0,0-20.21224-7.01042c-18.88672,92.32162-100.73828,161.987-198.5586,161.987A201.32108,201.32108,0,0,1,49.94141,201.569,211.90693,211.90693,0,0,0,45.53,222.64844a222.67045,222.67045,0,0,0,71.80338,12.01823C224.47656,234.66667,314.17318,159.01562,336.10417,58.35677Z" style="fill:#dca7be"/><path d="M416,298.66667C304.25,298.66667,213.33333,207.75,213.33333,96a201.709,201.709,0,0,1,6.50912-50.04167,211.90611,211.90611,0,0,0-23.33464,5.28516A224.15777,224.15777,0,0,0,192,96c0,123.51042,100.47917,224,224,224a224.15777,224.15777,0,0,0,44.75651-4.50781,211.90611,211.90611,0,0,0,5.28516-23.33464A201.709,201.709,0,0,1,416,298.66667Z" style="fill:#dca7be"/><path d="M47.77474,302.00391a211.12983,211.12983,0,0,0,6.45964,22.83593A203.33057,203.33057,0,0,1,204.28125,462.75521a212.08158,212.08158,0,0,0,23.151,4.44531C205.66276,382.22266,135.34115,316.69661,47.77474,302.00391Z" style="fill:#bc5a85"/><path d="M62.02083,490.38542c-12.29166,0-22.41666-3.36459-29.72916-10.67709A10.66552,10.66552,0,1,1,47.375,464.625c21.16667,21.17708,130.02083-28.63542,259.3125-157.9375C363.79167,249.58333,411.39583,190.03125,440.79167,139,471.875,84.96875,473.5,56.23958,464.625,47.375a10.66552,10.66552,0,1,1,15.08333-15.08333c19.5625,19.55208,12.5,60.13541-20.4375,117.35416-30.29166,52.60417-79.125,113.73959-137.5,172.125C231.89583,411.65625,121.5,490.375,62.02083,490.38542Z" style="fill:#9fd9c5"/><path d="M394.54167,235.23958a10.66753,10.66753,0,0,1-8.35417-17.29166C458.5,126.79167,480.375,63.13542,464.625,47.375a10.66552,10.66552,0,1,1,15.08333-15.08333C521.60417,74.20833,431.5,195.13542,402.89583,231.19792A10.62239,10.62239,0,0,1,394.54167,235.23958Z" style="fill:#c0e6d9"/><path d="M361.86619,201.94954,341.4878,263.65165a11.8011,11.8011,0,0,0,15.86395,12.888l61.72183-28.11448a11.8011,11.8011,0,0,0,3.23022-20.18367l-41.34345-33.58762A11.80109,11.80109,0,0,0,361.86619,201.94954Z" style="fill:#c0e6d9"/><circle cx="309.33333" cy="96" r="32" style="fill:#dca7be"/><circle cx="117.33333" cy="224" r="32" style="fill:#dca7be"/><circle cx="202.66667" cy="96" r="32" style="fill:#dca7be"/><circle cx="416" cy="309.33333" r="32" style="fill:#dca7be"/><circle cx="117.33333" cy="330.66667" r="32" style="fill:#bc5a85"/><path d="M21.6742,61.9729c0-12.29166,3.36458-22.41666,10.67708-29.72916A10.66553,10.66553,0,1,1,47.43462,47.32707C26.25753,68.49374,76.07,177.3479,205.37212,306.63957c57.10416,57.10417,116.65625,104.70833,167.6875,134.10417,54.03125,31.08333,82.76041,32.70833,91.625,23.83333A10.66552,10.66552,0,0,1,479.768,479.6604c-19.55208,19.5625-60.13542,12.5-117.35417-20.4375-52.60416-30.29166-113.73958-79.125-172.125-137.5C100.40337,231.8479,21.68462,121.45207,21.6742,61.9729Z" style="fill:#9fd9c5"/><path d="M276.82,394.49374a10.66754,10.66754,0,0,1,17.29167-8.35417c91.15625,72.3125,154.8125,94.1875,170.57292,78.4375A10.66552,10.66552,0,0,1,479.768,479.6604c-41.91667,41.89584-162.84375-48.20833-198.90625-76.8125A10.6224,10.6224,0,0,1,276.82,394.49374Z" style="fill:#c0e6d9"/><path d="M310.11008,361.81826,248.408,341.43987a11.8011,11.8011,0,0,0-12.888,15.864l28.11448,61.72183a11.80111,11.80111,0,0,0,20.18367,3.23021l33.58762-41.34345A11.80109,11.80109,0,0,0,310.11008,361.81826Z" style="fill:#c0e6d9"/></g></svg>