<svg xmlns="http://www.w3.org/2000/svg" viewBox="0 0 512 512"><title>Artboard 103</title><g id="Thinking"><path d="M397.82161,346.72266A181.17368,181.17368,0,0,0,288,21.33333c-96.54557,0-175.24349,75.513-180.79427,170.66667h-.53906L44.67708,281.46224A28.10161,28.10161,0,0,0,70.76823,320h35.89844v33.82943a72.83656,72.83656,0,0,0,72.83593,72.83724h33.83073l12.96615,38.89843A36.70952,36.70952,0,0,0,261.125,490.66667H389.957a36.70952,36.70952,0,0,0,34.82552-48.319Z" style="fill:#c26765"/><path d="M288,21.33333h-.16579q-.50544.00049-1.01011.00391h-.03878l-.07347.00065a21.33329,21.33329,0,0,0,.31395,42.665h.06946L288,64h0c76.461,0,138.66667,62.20573,138.66667,138.66667,0,43.43717-19.95113,83.583-54.73792,110.1442a42.66665,42.66665,0,0,0-15.17269,45.48991l21.5872,76.56576a21.33331,21.33331,0,0,0,41.0706-11.56055l-17.286-61.3099-.0072-.02571-.04305-.15267-.0092-.03255-.0192-.068-.00184-.00651-.32889-1.16666-.00017-.00066-1.00712-3.57194-.01774-.06282-.02978-.1058-.01278-.04524-.01481-.05241-.011-.03906-.0057-.02051-.01375-.04883-.16512-.58561-.01217-.043-.00463-.0166-.03557-.126-.01115-.03971-.079-.28-.00008-.00033-.11889-.42187-.01429-.05046-.01843-.06543-.02384-.08463c-.04981-.17676-.09876-.35026-.14726-.52214l-.01025-.03646-.01258-.04459-.00272-.00977-.03325-.11784-.01135-.04036-.00806-.02865-.00875-.03092-.01253-.04427-.00793-.02832-.01034-.03679-.01086-.03841-.02665-.0944-.01477-.05241-.06706-.238-.00195-.00684-.0728-.25814-.00378-.01367q-.07221-.25585-.142-.50325l-.00728-.02572-.01042-.03711-.00423-.015-.11943-.42383-.00655-.02311q-.30915-1.09668-.56335-1.998l-.00192-.00684-.05057-.17936-.01132-.04c-.29183-1.03515-.5214-1.84928-.67826-2.4056l-.00033-.0013-.2423-.85937h0A181.17371,181.17371,0,0,0,288,21.33333Z" style="fill:#b13b39"/><path d="M403.99011,291.54753a21.27822,21.27822,0,0,0-15.46553,6.63541,139.40738,139.40738,0,0,1-54.21908,35.24284,21.33337,21.33337,0,1,0,14.24341,40.21908,181.00157,181.00157,0,0,0,52.08435-28.85808l.00179-.0013c.17322-.13737.34505-.27441.51774-.41243h.00008c.04183-.03353.08553-.06869.12736-.10189l.00444-.00358c.04044-.03255.0837-.06738.12414-.09961l.00444-.00358c.128-.10287.25484-.20475.38253-.30794l.00968-.00782c.0363-.02929.07483-.06022.11113-.08984l.0216-.01725.11475-.0931.00565-.00456q.12684-.10254.25358-.20573l.00944-.00749.11141-.09082.0223-.01823.10405-.08463.02022-.0166.12032-.09831.00024-.00033q.12439-.10155.24838-.20345l.02445-.01985.0977-.08041.02641-.02148c.03466-.02865.06742-.05566.10209-.084l.01965-.01628.24642-.20345.01347-.01107.10722-.08887.02559-.02116.09473-.07845.02942-.02441.10018-.08333.02042-.01693.12126-.10091.00952-.00781.10893-.09082.03117-.026.08927-.07454.03524-.02962.08748-.07292.03158-.02669.10062-.08431.01941-.01628c.03968-.0332.07976-.06673.11939-.10026l.02193-.01823.09444-.07975.03756-.03158.08252-.06966.03837-.03222.08476-.07162.03316-.028.118-.09994.00244-.00195.11418-.09668.03682-.03125.07967-.06771.04269-.03646.07532-.06413.04492-.03808.082-.07.03292-.028.11279-.09636.0402-.0345.07711-.06576.0481-.04134.06473-.05534.05392-.04622.06575-.05664.04981-.04265.08077-.06933.0494-.04264.09493-.08171.04508-.03906.07-.06055.05159-.0446.06661-.05761.0461-.03972.07365-.0638.04521-.03939.10771-.09342.05375-.04688.05709-.04948.06209-.054.05363-.04688.06055-.05273.05118-.0446.06291-.055.05135-.04492.11056-.09668.05407-.04753.0658-.05762.04557-.04.06637-.05827.04553-.04.06913-.06087.03923-.03451.07186-.06348.02246-.01985.16048-.1416.02718-.02409.07186-.06348.041-.03646.067-.05957.04635-.041.068-.06055.0317-.028c.08472-.07552.17-.15136.2546-.22688l.033-.0293.07373-.06608.0367-.03255.07361-.06608.032-.02865c.08862-.07943.185-.16569.27352-.24544l.01-.00879.07727-.06966.03442-.03093.07475-.06738.03182-.02865.07743-.07.028-.02539q.13239-.11964.26485-.23991l.02018-.01823.0767-.06966.03357-.0306.07764-.07064.02511-.02279c.12573-.11425.24853-.22656.3739-.34147l.01636-.01465.08605-.0791.0199-.01823.08643-.07942.01314-.01205c.12935-.11881.256-.23535.385-.35449l.00895-.00814.09208-.08528.01058-.00977c.12887-.11947.26083-.24186.38937-.36133l.00394-.0039c.03321-.0306.06-.05567.09314-.08659l.01009-.00944.094-.08757.00224-.00228c.16565-.15462.32906-.30761.49414-.46289l.00093-.001c.16508-.15528.32813-.30925.4926-.46517l.00207-.002q3.46644-3.28515,6.75623-6.74739a21.33358,21.33358,0,0,0-15.482-36.00716Z" style="fill:#b13b39"/><path d="M198.19271,341.33333H192V334.5651a21.33334,21.33334,0,0,0-42.66667,0v19.26823A30.1589,30.1589,0,0,0,179.5,384h18.69271a21.33334,21.33334,0,0,0,0-42.66667Z" style="fill:#d2908a"/><path d="M288,64c-73.22923,0-133.927,57.3125-138.198,130.48958h0l-1.80586,25.14714a21.33671,21.33671,0,0,0,19.75338,22.80664q.78.05614,1.55023.056A21.33118,21.33118,0,0,0,190.55318,222.693l1.843-25.71744A95.91738,95.91738,0,0,1,288,106.66667,21.33333,21.33333,0,0,0,288,64Z" style="fill:#d2908a"/><path d="M265.90755,448h-.48828L255.80469,419.155a21.33364,21.33364,0,0,0-40.48177,13.48047l7.05989,21.17968.00261.00912.05989.17969.0013.0026.03516.10677.03516.10287.01432.04557c.013.03906.02734.07812.04036.11719l.05469.16536.00912.02865.01953.05859c.00651.01823.01172.03646.01823.05469l.00521.01693c.00651.01692.01171.03255.01692.04947l.35547,1.06641.0013.00391.026.07812c.00521.01432.00912.026.013.04037l.00911.026c.00781.02474.01563.04557.02344.07031l.0026.00912c.01823.05468.03646.10937.05469.16276l.00911.02864.02344.06771.0013.00391c.00651.02083.013.04166.02084.0638l.01432.04166c.00651.01823.01172.03646.01823.05469l.0625.19011c.026.07812.05338.15755.07943.23567l.01172.03776c.01692.04948.03385.09766.04947.14714l.00391.00911c.01432.04558.03.08985.04427.13542l.02865.08594c.01172.03646.02474.07422.03776.11068l.0039.013c.01563.04817.03256.09895.04818.14713l.013.03776c.00651.01823.013.03906.01953.0586l.00131.0039.01953.05729.07552.22787.00781.02213.01172.03516c.00651.01823.01172.03776.01823.056l.00911.02734c.01563.04558.03.08985.04558.13542l.00911.02995c.02865.08594.05729.17187.08594.25651l.02995.08854c.02994.08984.05989.181.08984.26823l.01042.03125c.01432.04557.02994.09114.04427.13542l.00651.02083c.013.03776.026.07552.03776.112l.01953.056c.03125.09505.0625.1901.09375.28385l.0013.00391c.01693.04948.03385.099.04948.14844l.0013.0039c.00781.02214.01432.04427.02214.06641l.00781.02344.01042.02994.01823.05469c.01171.03646.02474.07292.03645.10938l.03516.10416a.25619.25619,0,0,0,.01042.03386l.01432.043c.02474.07421.04948.14974.07422.224l.03515.10547c.00782.02214.01563.043.02214.06511l.013.03645c.013.04037.026.07943.03906.11849l.00782.026c.02864.08593.05729.17057.08593.2552l.00521.01693c.0612.181.11979.35807.17708.52995l.00261.00911c.11588.34766.22656.67839.32943.98959l.0039.01041c.207.6211.388,1.16276.53646,1.61068l.00521.013c.29818.89584.46875,1.40755.46875,1.40755A36.70952,36.70952,0,0,0,261.125,490.66667h4.78255a21.33333,21.33333,0,1,0,0-42.66667Z" style="fill:#b13b39"/><circle cx="128" cy="256" r="21.33333" style="fill:#d2908a"/><path d="M277.33333,192,320,234.66667l-12.49679,12.49678a30.16984,30.16984,0,0,1-42.66662,0l0,0a30.16984,30.16984,0,0,1,0-42.66662Z" style="fill:#351534"/><path d="M394.66667,21.33333a95.99975,95.99975,0,0,0-96,96,94.92943,94.92943,0,0,0,4.48567,27.51433L256,192l64,64,47.15234-47.15234a94.92943,94.92943,0,0,0,27.51433,4.48567,96,96,0,1,0,0-192Z" style="fill:#e1811c"/><path d="M352,170.66667a95.99975,95.99975,0,0,0,96-96,94.96322,94.96322,0,0,0-10.50781-42.82552,94.96314,94.96314,0,0,0-42.82552-10.50782,95.99975,95.99975,0,0,0-96,96,94.92943,94.92943,0,0,0,4.48567,27.51433L256,192l21.33333,21.33333L324.48568,166.181A94.92932,94.92932,0,0,0,352,170.66667Z" style="fill:#f0a319"/><path d="M356.418,210.74479,301.25521,155.582a21.20367,21.20367,0,0,0-29.13412-.6888,60.13556,60.13556,0,0,0,84.98568,84.98568A21.20364,21.20364,0,0,0,356.418,210.74479Z" style="fill:#c0e6d9"/><path d="M356.418,210.74479,301.25521,155.582a21.20367,21.20367,0,0,0-29.13412-.6888,60.13556,60.13556,0,0,0,84.98568,84.98568A21.20364,21.20364,0,0,0,356.418,210.74479Z" style="fill:#9fd9c5"/><path d="M272.12109,154.89323q-.21616.23451-.42936.47072C247.7646,181.873,287.46225,221.56959,313.97005,197.641q.23587-.21291.47-.42879a21.20364,21.20364,0,0,0-.6888-29.13412L301.25521,155.582A21.20367,21.20367,0,0,0,272.12109,154.89323Z" style="fill:#c0e6d9"/><path d="M345.49072,224.972a10.62263,10.62263,0,0,0-6.29492,2.0625,38.8359,38.8359,0,0,1-12.3151,6.03255q-.18311.05224-.363.11067c-.12272.028-.24593.05827-.36865.09082A38.9933,38.9933,0,0,1,299.293,230.7474a10.66665,10.66665,0,0,0-9.3125,19.19336,59.86329,59.86329,0,0,0,19.39111,5.59049l.0044.00065.08626.00944.00358.00033c.14746.0166.29557.03222.443.04752l.00358.00033.07862.00814.01676.00162.07536.00749.01725.00195.0765.00749.012.0013c.113.01107.22543.02181.33838.03223l.01465.0013.07276.00684.02213.00195.07015.00619.0249.00227.07.00619.02051.002c.10921.00944.21761.01888.327.02767l.02181.00195.06674.00521.029.00261.0651.00521.03076.00227.06332.00489.03174.0026.0651.00488.02.00163.22314.0166.03614.00261.05761.0039.03776.00261.05892.00423.03776.0026.058.00391.03808.0026.05843.00358.0363.00261c.06933.00456.13753.00879.20687.013l.03857.00228.0542.00325.04346.00261.054.00325.04216.00261.055.00293.04053.00228.057.00325.03938.00228.05632.00293.0236.0013c.03922.002.07764.00391.11686.00619l.04785.00227.0472.00228.051.00261.04671.00228.05257.0026.04557.00195.0516.00261.04687.00195.0542.0026.043.00163.09294.00391.03987.00163.05811.0026.04427.00163.05355.00195.04557.00195.05371.002.043.00163.05811.00195.0402.0013.06575.00228.03158.001c.03223.0013.06462.00227.09668.00325l.02441.00065.07357.00228.03858.0013.05859.00163.04264.001.05794.00162.03907.001.06266.00163.03564.001.06918.00163.02978.00065.09668.002.02116.00065.07829.0013.03092.00065.06787.0013.03646.00065.06169.001.0389.00065.06022.001.0389.00032.07015.001.0262.00033.09945.001.00553.00033c.03109.00032.062.00065.0931.00065l.0306.00032.06673.00066h.03793l.062.00065h.03743l.06169.00032.03776.00033h.098l.09815.00032h0l.07715-.00032h.09977l.07633-.00033h.01774l.05974-.00032.02295-.00033.07666-.00032h.0026l.07617-.00066.01709-.00032.07015-.00065h.00879l.07747-.00065.0184-.00033.06461-.00065.01563-.00033.07926-.001.00505-.00033.07422-.001.015-.00033.07666-.001.00309-.00032.08041-.0013.01334-.00033.07031-.0013.01124-.00033.07959-.00162h.01123l.06738-.00163.0192-.00033.15788-.0039.013-.00033.075-.002.0052-.00033.08317-.00228h.00538l.07633-.00228.00993-.00032c.05485-.00163.11084-.00326.16553-.00521h.00618l.16781-.00586h.00276l.08269-.00325h.0026c.05664-.002.11165-.00424.16813-.00651h.006c.05664-.00228.11263-.00489.16911-.00717h.00049c.0861-.00358.1709-.00748.257-.01139l.00179-.00032a60.52563,60.52563,0,0,0,12.70036-1.96192q.26391-.07128.521-.1543.25562-.05859.51058-.12955a60.24048,60.24048,0,0,0,19.14681-9.37305,10.66729,10.66729,0,0,0-6.342-19.25032Z" style="fill:#70c5aa"/><circle cx="288" cy="160" r="10.66667" style="fill:#f2f9f6"/><path d="M394.66667,42.66667h-.11621l-.035.00032h-.08073l-.04345.00033H394.318l-.04427.00032-.07112.00033-.04916.00032-.06624.00066-.04948.00032-.068.00065-.04785.00033-.06934.00065-.04655.00065-.07.001-.04671.00032-.07536.001-.03922.00065-.08708.0013-.02962.00033-.11491.002-.03158.00065-.083.00163-.04737.001-.06771.0013-.05013.001-.06608.00131-.0485.0013-.06771.0013-.05.0013-.06363.00163-.0529.0013-.06315.00163-.05257.0013-.06234.002-.05241.00131-.06706.00195-.04752.00163-.07422.00228-.04069.001-.10352.00358-.03206.001-.09375.00326-.04.0013-.07455.0026-.048.002-.06575.00228-.05323.00228-.062.00228-.05159.002-.064.00261-.05176.00228-.06364.0026-.05013.00228-.06673.0026-.04834.00228-.07047.00326-.043.002-.07683.00358-.03889.00163-.09034.00456-.02425.001-.11279.00586-.04118.002-.075.00391-.043.00228-.07064.00391-.0485.0026-.06624.00358-.05.00261-.064.00358-.05078.00293-.06543.0039-.0485.00293-.06559.00391-.04981.00293-.06575.0039-.04851.00293-.0664.00424-.048.00292-.07552.00489-.03792.0026-.1141.00749-.00748.00032-.10628.00717-.0363.0026-.078.00521-.04313.00325-.07064.00489-.04639.00325-.06738.00488-.04867.00359-.06559.00488-.04834.00358-.06527.00488-.05045.00391-.06462.00488-.04769.00391c-.02474.00162-.0459.00358-.07063.00553l-.04281.00326-.08106.00651-.03173.0026c-.03451.0026-.069.00553-.10352.00846l-.0109.00066-.11508.00976-.02278.002-.09.00749-.03874.00326-.07568.00683-.04215.00358-.07032.00619-.0459.0039-.06917.00651-.04394.00391-.07146.00651-.041.00358-.076.00716-.03809.00358-.07584.00717-.03874.00358-.0791.00781-.03467.00325-.09017.00879-.02311.00228-.11458.01139-.00944.001c-.03435.00326-.069.00684-.10319.01042l-.0363.00358-.07764.00781-.03825.00391-.07519.00781-.04281.00456-.06917.00748-.04574.00489-.06738.00716-.04687.00488-.06836.00749-.04265.00488-.0721.00781-.04232.00456-.07373.00846-.03841.00424-.08008.00911-.03352.00391c-.07569.00846-.15072.01725-.2264.026l-.02181.0026-.09213.01107-.03076.00358-.08024.00977-.04036.00488-.07357.00879-.04.00488-.07227.00879-.04231.00553-.071.00879-.04232.00521-.07063.00879-.042.00553-.07487.00944-.0371.00489-.08334.01074-.02832.00358-.11051.01465h-.001c-.07764.01042-.15267.02018-.23031.03092l-.01643.00228c-.03158.00423-.06446.00847-.096.013l-.02751.00358-.08463.01172-.03256.00456-.08007.01107-.03549.00488-.07682.01107-.03662.00488-.077.01107-.0358.00521-.0809.01172-.03011.00423-.08772.01269-.02491.00358c-.03385.00521-.06966.01042-.10351.0153l-.00781.0013q-.17041.02492-.3405.05111l-.03011.00456-.08219.01269-.03353.00521-.07813.01205-.036.00553-.07747.01237-.035.00553-.07666.01205-.036.00586-.0804.01269-.02995.00489-.08821.01432-.02279.00358-.1001.01628-.01155.002c-.11556.01888-.228.03776-.34327.05729l-.00406.00065c-.03614.00586-.07064.012-.10677.01791l-.02.00358-.09131.01562-.02637.00456-.08643.015-.026.00456-.08528.015-.03011.00521-.08138.01432-.03044.00521-.08333.015-.02865.00521-.09391.0166-.01514.00293c-.03841.00683-.07.01237-.10824.01953l-.00406.00065c-.11475.02083-.22738.04167-.342.06315l-.00717.0013-.10286.01921-.02018.0039-.09115.01726-.02441.00455L380.5459,44l-.02914.00553-.08365.01628-.02751.00521-.08545.0166-.02588.00488-.08984.01758-.021.00423-.10351.02051-.006.0013c-.11425.02246-.22526.0446-.33919.068l-.01172.00227-.098.01986-.02425.00488-.08659.01791-.02653.00553-.085.01758-.02669.00553-.08562.01791-.02506.00521-.08691.01823-.02458.0052-.091.01921-.0184.00391-.10091.02181-.00928.002c-.15136.03223-.29915.06445-.45019.098l-.00619.0013-.10449.02311-.01351.00293-.0944.02116-.02327.00521-.08838.01986-.02214.00521c-.02832.00618-.06087.01367-.089.02018l-.022.00488-.09277.02116-.0166.00391-.099.02278-.01107.00261c-.18815.04329-.37061.08626-.55827.13118l-.00928.002c-.03287.00813-.06722.01627-.09993.02408l-.0166.00391-.09359.02279-.01855.00455-.09066.02181-.02132.00521-.09408.02311-.013.00326-.10124.02506-.00911.002c-.222.055-.4445.11133-.66585.16829l-.01091.00261-.1001.026-.0109.0026-.09863.02572-.013.00325c-.03255.00879-.06673.01758-.09928.026l-.01025.00261c-.03256.00879-.07015.01855-.10271.027l-.00667.002c-.29752.07845-.58952.15755-.88558.23958l-.00569.00163-.10482.029-.00554.00163-.10644.02995-.00293.00065c-.29574.083-.58789.167-.882.25358l-.00391.001c-.03678.01106-.06933.0205-.10612.03125l-.00406.0013-.10385.03092-.00732.00228-.10563.03125-.00212.00065c-.25683.07683-.5109.1543-.7666.23405l-.00439.0013-.10515.03288-.00358.001c-.03646.01139-.07.02181-.10644.03353l-.00212.00065A74.74747,74.74747,0,0,0,320.73812,106.793a21.33338,21.33338,0,0,0,42.25065,5.944,32.10345,32.10345,0,0,1,31.6779-27.40365,21.33334,21.33334,0,0,0,.0345-42.66666Z" style="fill:#fbe9cc"/></g></svg>