<svg xmlns="http://www.w3.org/2000/svg" viewBox="0 0 512 512"><title>Artboard 112</title><g id="Timeline"><path d="M256,341.33333A21.33438,21.33438,0,0,1,234.66667,320V234.66667a21.33333,21.33333,0,1,1,42.66666,0V320A21.33438,21.33438,0,0,1,256,341.33333Z" style="fill:#9fd9c5"/><circle cx="256" cy="106.66667" r="21.33333" style="fill:#9f4979"/><circle cx="256" cy="405.33333" r="21.33333" style="fill:#9f4979"/><circle cx="181.33333" cy="126.67354" r="21.33333" style="fill:#f0a319"/><circle cx="330.66667" cy="385.32646" r="21.33333" style="fill:#f0a319"/><circle cx="126.67354" cy="181.33333" r="21.33333" style="fill:#9fd9c5"/><circle cx="385.32646" cy="330.66667" r="21.33333" style="fill:#9fd9c5"/><circle cx="106.66667" cy="256" r="21.33333" style="fill:#cd84a4"/><circle cx="405.33333" cy="256" r="21.33333" style="fill:#cd84a4"/><circle cx="126.67354" cy="330.66667" r="21.33333" style="fill:#ebb5bc"/><circle cx="385.32646" cy="181.33333" r="21.33333" style="fill:#ebb5bc"/><circle cx="181.33333" cy="385.32646" r="21.33333" style="fill:#230022"/><circle cx="330.66667" cy="126.67354" r="21.33333" style="fill:#230022"/><path d="M182.79676,137.30379l48.57142-80.67226c9.54993-15.86149,1.38856-35.46974-18.03485-35.29706l-106.66666-.00114C87.241,21.506,78.99942,42.21367,88.87289,57.90249l50.217,79.794C148.96331,153.38534,173.2457,153.16715,182.79676,137.30379Z" style="fill:#9f4979"/><path d="M215.34969,51.90535a10.66171,10.66171,0,0,0-9.14827,5.16643L164.52051,126.3c-.94971,1.57739-3.07455,1.7-3.703,1.7a4.32538,4.32538,0,0,1-3.67211-1.66634l-8.83285-14.0354a10.66673,10.66673,0,0,0-18.06543,11.34709l7.80208,12.39729.00383.00611.01261.02.00423.00683.01425.02263.00634.01009.00489.00773.01155.01831.00993.01579.00643.01017.01294.02051.00016.00032.04509.07162.0122.01937.11906.1892.01856.02963.01172.01855.00879.01392.0004.00057.04134.06575.00733.01164.09546.15177.01749.02775.00936.0149.002.003.01074.01709.00252.004.02523.04012.00049.00081.04907.078.00366.00586.04606.07324.00244.00375.02124.03377.00261.00415.00724.01156.00594.00936.00342.00553.00765.01212c.23958.38062.37655.59831.37655.59831a26.0983,26.0983,0,0,0,43.70686-.39258s.65137-1.08186,1.79012-2.97314l.00188-.00317c1.1385-1.891,2.76481-4.59205,4.71508-7.8313l.01205-.01994c.97526-1.62,2.03068-3.3728,3.14778-5.22835l.00074-.00106q.83777-1.39161,1.71972-2.85637l.00464-.00765q.87293-1.44995,1.78093-2.958l.02824-.04688c1.21427-2.01684,2.46915-4.10107,3.74373-6.218l.0166-.02758q.95606-1.588,1.923-3.19393l.01245-.02076q.23766-.39453.47566-.79l.0066-.011.47159-.78328.02938-.04875.46078-.76538.0188-.03125.10791-.1792.01123-.01856.10774-.179.02637-.04386.07568-.12566.04476-.07438.0918-.15242.07658-.1272.04419-.0734.03629-.06031.08138-.13525.04224-.07015.09831-.16317.00439-.00732.054-.0896.0131-.02173.03548-.059.03768-.0625.22388-.37191.00057-.001.23331-.38745.023-.03808.473-.78565.00415-.00683.24121-.40072.00089-.00155.21843-.36271.05184-.086q.95007-1.57812,1.89168-3.14192l.03377-.05615q.46571-.77356.92676-1.53923l.0328-.05452.44921-.7461.01351-.02238c.15178-.2522.30542-.5074.45646-.75814l.01669-.02767.92789-1.54126.00318-.0052q.34509-.57338.6862-1.13973l.01188-.01978.1075-.17855.00423-.007.05087-.08455.08772-.14567.028-.04647.00325-.00545q.4253-.70631.84383-1.40145l.0136-.02262c.22249-.36955.442-.73413.66121-1.09823l.0035-.00586.04948-.08211.95776-1.59074.00627-.0105.15381-.25537.00683-.01131.05681-.09432.06656-.1106.01563-.026.04346-.07226.00439-.00733.03556-.059,1.1211-1.86206.03279-.05444,4.53484-7.5319.00846-.01416,4.5153-7.49943a10.66921,10.66921,0,0,0-9.129-16.16879Z" style="fill:#6b3062"/><path d="M234.66667,298.66667A21.33334,21.33334,0,0,1,219.58333,262.25l85.33334-85.33333a21.331,21.331,0,0,1,30.16666,30.16666L249.75,292.41667A21.26424,21.26424,0,0,1,234.66667,298.66667Z" style="fill:#f0a319"/><circle cx="256.00356" cy="256.00356" r="21.33333" style="fill:#f6cd8b"/><circle cx="245.33511" cy="245.33511" r="10.66489" style="fill:#fbe9cc"/><path d="M256,490.66667C126.60417,490.66667,21.33333,385.39583,21.33333,256A234.79136,234.79136,0,0,1,162.11458,40.86458a21.33645,21.33645,0,0,1,17.08334,39.10417A192.105,192.105,0,0,0,64,256c0,105.86458,86.13542,192,192,192s192-86.13542,192-192A191.24853,191.24853,0,0,0,275.22917,64.94792a21.33319,21.33319,0,0,1,4.20833-42.45834C399.86458,34.44792,490.66667,134.84375,490.66667,256,490.66667,385.39583,385.39583,490.66667,256,490.66667Z" style="fill:#9f4979"/><path d="M113.8016,100.9257a10.6319,10.6319,0,0,0-7.484,3.06665A213.35534,213.35534,0,0,0,86.31917,385.32056,10.66668,10.66668,0,0,0,103.3016,372.409a192.19942,192.19942,0,0,1-12.79688-19.00773l-.0061-.0105c-.09815-.16634-.19914-.33822-.29672-.50489l-.00431-.00732-.05753-.09823-.00285-.005c-.07927-.1355-.156-.26709-.23487-.40283l-.00594-.01017-.05485-.0944-.00724-.01246-.05461-.09415-.00537-.00928c-.07568-.13053-.15291-.26408-.22827-.39486l-.01188-.02067-.05217-.09049-.00659-.0114c-.09635-.16739-.19181-.3339-.28776-.5017l-.01082-.019-.0507-.0887-.01213-.02132-.04939-.08659-.00969-.017c-.05078-.08919-.10913-.19181-.15983-.28117l-.013-.02287-.04541-.08008-.02059-.03637-.04281-.0756-.01871-.03313-.04549-.08048-.00424-.00757-.09253-.164-.02433-.04313-.03922-.06975-.0245-.04353-.03833-.06828-.02661-.04736-.03817-.068-.026-.04622-.03743-.0669-.01416-.02531-.08781-.157-.01978-.03532-.03971-.07129-.02425-.04354-.0376-.06738-.02856-.05143-.03589-.06453-.0258-.04639-.06909-.12459-.02718-.04883-.03215-.058-.03288-.05949-.0323-.05851-.03223-.05827-.0319-.05778-.03231-.05851-.03271-.05941-.04786-.08683-.01611-.0293-.05924-.10774-.02946-.0538-.03483-.06331-.03182-.05819-.03093-.05639-.03255-.05949-.03573-.06527-.02726-.05-.0529-.09692-.0319-.05843-.03971-.07292-.02848-.05233-.03451-.06355-.03141-.05787-.03353-.06176-.02873-.0529-.04044-.07471-.023-.04248-.06218-.11507-.01693-.03133-.04614-.08537-.02466-.04573-.041-.07618-.02206-.041-.04825-.08968-.01449-.02686-.0638-.11889-.0009-.00163-.06469-.12077-.016-.02995-.04948-.09253-.01635-.0306-.04891-.09171-.01734-.03247-.05184-.09725-.012-.02238q-.06505-.12219-.13013-.24479l-.0122-.023-.05046-.09514-.01945-.03678-.04451-.08415-.02019-.03817-.04817-.09122-.0149-.02824-.06437-.12215-.00219-.00424-.06169-.1171-.01261-.02409-.05249-.09994-.01294-.02457-.05331-.10181-.01172-.02238c-.06494-.12386-.12915-.24691-.19376-.37093l-.01123-.02148-.05192-.09986-.01457-.02791-.05534-.10661-.00684-.01318-.13175-.25432L85.337,344.054l-.06161-.11923-.01156-.0223-.05631-.10937-.00594-.01147q-.09779-.18994-.19515-.38l-.00537-.01034-.06079-.11889-.00391-.00757-.06071-.1189-.00513-.01c-.06583-.12907-.13-.25521-.19563-.38452l-.00082-.00163-.06258-.12337-.00513-.01017c-.087-.17171-.17277-.3418-.25919-.51375l-.00073-.00139-.06413-.12768-.0013-.00261c-.08635-.17212-.172-.3435-.25782-.51587l-.00382-.00773-.05965-.12-.0048-.0096c-.08456-.17025-.17139-.34563-.25554-.51612l-.00163-.00333a190.63506,190.63506,0,0,1-15.30314-43.77474l-.00024-.0009c-.14844-.68188-.29208-1.35937-.43327-2.04394l-.00049-.00245-.02946-.143-.00073-.00366c-.04028-.19637-.07926-.38754-.11906-.58415l-.00008-.00049-.02922-.14494-.00048-.00228c-.03907-.19417-.07764-.38712-.11613-.58146l-.00188-.00927-.02783-.141-.00032-.00154q-.04333-.21961-.08627-.43978l-.00016-.001-.02791-.14372-.001-.00488q-.05664-.29187-.11247-.58463l-.00065-.00342-.02759-.14461-.00016-.0009q-.05554-.29223-.11011-.58463l-.0017-.00928-.026-.13941-.00082-.00431c-.02734-.147-.05436-.29321-.08138-.44027l-.00024-.00154-.02637-.14413-.0009-.00488-.02628-.144-.00025-.00155c-.02628-.14461-.05371-.29606-.07967-.44084l-.00073-.00415-.02449-.137-.00277-.01538-.025-.14-.00008-.00074c-.0262-.1473-.0511-.28833-.077-.43579l-.003-.01725-.02336-.13346-.00138-.00782c-.02572-.14754-.05062-.29093-.076-.43855l-.00139-.00774-.02351-.13712-.002-.01123L66.741,288.51l-.00057-.00342c-.03345-.196-.06608-.389-.09888-.58537l-.002-.01188-.02377-.14249-.00008-.00025c-.02417-.14534-.04883-.29435-.07267-.43978l-.0022-.01351-.02213-.135-.00139-.00887c-.02376-.1455-.04809-.29565-.07153-.44124l-.00041-.00244-.02246-.13989-.0026-.0162-.02059-.12907-.00261-.01635q-.03478-.21864-.06909-.43734l-.00146-.00928-.02018-.12923-.00424-.027-.01953-.12565-.00211-.01359c-.0223-.14331-.0446-.28809-.06649-.43148l-.00431-.02848-.018-.118-.00382-.02507-.01913-.1263-.00236-.01538q-.02209-.14611-.04394-.29248l-.001-.00611-.0201-.1346-.00334-.02278-.01855-.12509-.00285-.019c-.02124-.14363-.04313-.2928-.06405-.43652l-.00171-.01188-.019-.13054-.00309-.02164-.01847-.12753-.00236-.01684-.02051-.14282-.00008-.00025c-.014-.09765-.02775-.19458-.04159-.29232l-.00293-.02067-.01676-.11849-.00464-.03312-.01571-.112-.00439-.03149c-.01335-.09513-.02678-.19157-.03988-.28679l-.00146-.01041-.01815-.13135-.00366-.02653-.01612-.11759-.00374-.02743-.01758-.12923-.00163-.01205c-.01334-.09781-.02628-.19344-.03938-.29134L65.7172,281.79l-.01644-.12256-.00415-.03133-.01578-.11841-.00293-.02214-.01807-.13639-.00081-.00659c-.01262-.09538-.02588-.19662-.03833-.292l-.00277-.02116-.01563-.12069-.004-.03084-.01506-.11662-.00333-.0258-.03728-.291-.0004-.00342-.01783-.14038-.00236-.0188-.01587-.12638-.00292-.023-.01628-.13021-.00163-.013c-.01221-.09815-.02449-.197-.03654-.29525l-.00081-.00659-.01628-.13249-.00382-.03109-.01416-.11653-.00326-.02645-.01522-.12606-.00219-.01774c-.01156-.0957-.02336-.19409-.03475-.28979l-.00277-.02312-.01457-.123-.00293-.02434-.014-.1193-.00342-.029-.01628-.13892-.00016-.00081c-.01148-.09839-.02279-.19613-.0341-.2946l-.00252-.02156-.01327-.11622-.00439-.03841-.013-.11377-.003-.02636-.03288-.29224-.00057-.00505-.015-.13387-.00383-.03474-.01229-.11084-.0035-.03207-.01326-.12036-.00252-.02336c-.01058-.096-.02084-.19083-.03125-.28686l-.00342-.03158-.01221-.114-.0035-.03223-.012-.11214-.00358-.034-.01343-.1267-.00147-.014c-.01017-.09611-.02034-.19361-.03035-.2898l-.00334-.0319-.01106-.10685-.00489-.04761-.00984-.09521-.00472-.04606-.01075-.106-.00366-.036-.01416-.14-.00268-.02669-.01148-.11361-.00431-.04345-.01009-.10173-.00415-.04191-.01026-.10311-.004-.04077-.01253-.12809-.00122-.01237-.01383-.142-.0035-.03679-.01-.10335-.00448-.04687-.00928-.09685-.00455-.04825-.00985-.10409L64.857,274.26c-.00887-.09383-.0179-.1901-.02661-.284l-.004-.04362-.00887-.09562-.00464-.05094-.009-.09782-.0039-.043-.01018-.11247-.0026-.02865-.01294-.14314-.00154-.018-.01107-.1241-.00358-.0398-.00912-.10327-.00374-.04232-.00936-.10709-.00309-.03557c-.00822-.094-.01685-.19352-.0249-.28751l-.0018-.02116-.01057-.12451-.00253-.02995-.00968-.11475-.00277-.03255-.01-.11979-.00211-.02572c-.00806-.09676-.016-.19238-.02385-.28914l-.00236-.02832-.00936-.11524-.00309-.03873-.00854-.10555-.00318-.03988-.00879-.11059-.00268-.03361c-.00765-.09685-.0149-.18873-.02238-.28557l-.00285-.03686-.00814-.10515-.00366-.04728-.00716-.09334-.00383-.05062-.0083-.10937-.00228-.03085-.01082-.14363-.00138-.01954-.00912-.12215-.00285-.03906-.00773-.10506-.00325-.04476-.00741-.10278-.00285-.03874-.00952-.13257-.00065-.00985-.01034-.14591-.00187-.02621-.008-.1136L64.469,269.525l-.007-.1005-.003-.04411-.0074-.1084-.00228-.03279-.01945-.2885-.00236-.03556-.007-.10571-.00293-.04549-.00659-.10051-.00293-.04533-.00708-.109-.002-.03238-.00912-.14275-.00138-.02189-.00773-.12288-.00244-.03833-.00643-.1036-.00285-.04663-.00594-.09684-.0031-.04972-.00651-.10808-.002-.03222-.00846-.14112-.0022-.03784-.0061-.103-.00318-.05444-.00521-.08927-.003-.052-.00545-.09546-.00285-.0494-.00683-.12044-.00114-.0197-.00781-.14-.00245-.04509-.00545-.09831-.00285-.053-.00488-.089-.00293-.054-.00529-.1-.0022-.04134-.00757-.14323v-.00049l-.00724-.13948-.00252-.04956-.00464-.0896-.00309-.06112-.00423-.08463-.00277-.05461-.005-.103-.002-.03881-.00692-.14217L64.226,265.398l-.00545-.11409-.00244-.05152-.00448-.09416-.00236-.05069-.00439-.09546-.0022-.0481-.00513-.11247-.00138-.03043-.00635-.14063L64.19,264.62l-.00455-.10359-.002-.0459L64.1792,264.37l-.00195-.046-.00472-.10995-.00131-.031-.006-.14584h0l-.006-.14616-.00122-.03182-.0044-.10872-.00195-.04924-.00374-.09594-.002-.05054-.00366-.09481-.00187-.049-.00521-.14-.00089-.02385-.00432-.11767-.00195-.05323-.00317-.08854-.00212-.058-.003-.08537-.002-.05916-.00342-.09839-.00139-.04151-.00472-.13973-.0013-.04036-.0035-.10474-.00154-.04874-.00293-.092-.00179-.05673-.003-.09407-.00147-.04728-.00366-.12207-.00065-.02076-.00423-.143-.00114-.03882-.003-.1027-.00155-.0551-.00244-.08821-.00155-.056-.0026-.09457-.0013-.04809c-.00261-.09546-.005-.18555-.00733-.28109l-.00146-.0564-.0022-.08846-.00138-.05631-.0022-.09009-.00122-.05224-.00244-.10385-.0009-.04-.00317-.141-.00074-.03369-.00244-.11059-.001-.04574-.00212-.1005-.001-.04867-.002-.09643-.001-.05-.002-.10278-.00081-.04167-.00261-.14087-.00065-.03817-.00187-.10311-.001-.05485-.00146-.09008-.001-.05624-.00146-.09155-.00082-.051-.002-.12557-.00024-.01717-.00212-.14192-.00065-.04525-.0013-.0992-.00074-.05127-.00122-.09172-.00073-.057-.00114-.096-.00057-.04525-.00163-.14274-.00016-.01636-.00138-.12825-.00041-.04428-.001-.09765-.00057-.05461-.00081-.09171-.00049-.0538-.00081-.10164-.00033-.04093-.00105-.14161-.00025-.03727-.00073-.10579-.00033-.05339-.00057-.0931-.00032-.05094-.00049-.09953-.00024-.04622-.00049-.12134-.00008-.022-.00057-.14315-.00008-.03988-.00033-.10718-.00008-.04532-.00016-.099-.00009-.04981-.00016-.10294v-.042L64,256h0l.00008-.15666v-.01961l.00016-.1359.00009-.054.00024-.1027.00016-.051.00025-.10465.00024-.06006.00033-.0966.00024-.05745.00049-.09815.00024-.06046.00057-.09619.00033-.06128.00057-.09326.00049-.07788.00057-.07756.00057-.075.00056-.08163.00066-.07194.00065-.08374.00065-.07316.00081-.08244.00073-.07584.00082-.07976.00081-.076.00082-.07968.00089-.07373.001-.08325.00081-.06681.00106-.08879.001-.07055.001-.08513.001-.06762.00122-.08822.00106-.07064.00122-.08406.00106-.07064.00138-.08627.00106-.06656.00146-.08936.00114-.06624.00155-.08846.00122-.07113.00155-.08382.0013-.07048.00163-.08528.00138-.07268.00163-.08195.00146-.07413.00163-.0809.00163-.076.00171-.079.00162-.0752.00171-.08073.00171-.07528.00187-.07967.00171-.07535.00187-.07984.00188-.07723.00187-.077.00195-.07732.002-.07836.00212-.08025.00187-.0734.00212-.07959.00211-.07747.002-.07544.00219-.08041.00212-.07413.00228-.07951.00228-.08008.0022-.07389.00227-.07919.00236-.0769.00236-.07731.00245-.07894.00227-.07292.00253-.08227.00252-.07642.00244-.07682.00252-.07617.00269-.08.00252-.07536.00269-.07959.00252-.07406.00285-.0804.00268-.07707.00269-.07641.00285-.07691.00285-.07934.00276-.07585.00293-.07894.00277-.07356.00309-.08073.003-.078.00293-.07544.003-.07649.0031-.07919.00309-.07706.00317-.07764.003-.07455.00326-.07975.00325-.07772.00318-.07617.00325-.07666.00342-.07861.00326-.07625.0035-.07927.00317-.07316.00358-.08105.00342-.07561.0035-.0782.00342-.075.00374-.08105.00334-.072.004-.08537.00318-.06673.00407-.0861.0035-.072.00382-.07976.00358-.07381.004-.08146.00358-.07235.00423-.08447.00342-.06828.00423-.0826.00391-.07609.0039-.07609.00391-.0756.00423-.07967.004-.07617.00415-.07748.004-.07511.00431-.07967.004-.07463.00456-.083.00382-.06876.0048-.08692.00383-.0673.005-.08805.00366-.06511.00489-.086.00406-.0704.00489-.08463.0039-.0669.00521-.08878.00391-.06609.00529-.08862.00382-.064.00546-.09017.0039-.06446.00554-.09049.0039-.06274.0057-.09229.00382-.06112.00594-.09546.00367-.05769.00577-.091.00415-.06526.00578-.08985.004-.06185.00619-.09489.0039-.05892.00651-.099.00358-.05363.00611-.09131.00439-.0656.006-.08935.00415-.06177.0066-.09578.004-.05843.007-.10075.0035-.05111.00708-.10026.00383-.05493.007-.09872.00383-.05395.00716-.10018.00383-.05363.00854-.11711.00244-.03418.00806-.11027.00334-.04524.0096-.12964.00154-.02132.0101-.134.00146-.02c.00716-.09521.01465-.1936.022-.28881l.00147-.01888c.03117-.40617.06445-.82137.09822-1.22689l.00212-.0258.02368-.28141.00163-.019.01164-.13607v-.00073l.01294-.14974.00293-.03394.01033-.11914.003-.03369.01042-.11939.00293-.03263.01066-.12061.00317-.0354.01026-.11539.00415-.04606.00976-.10873.00334-.03646.0105-.11515.00366-.04053.0105-.11434.00309-.03279.01082-.11776.00407-.043.01034-.11116.0035-.03671.01082-.11539.00383-.04029.01057-.11173.00432-.04517.01017-.10587.0048-.04964.01-.10385.00456-.04728.01017-.10457.00472-.04761.01042-.10636.00439-.04444.0105-.10644.0048-.04769.01058-.10661.00431-.043.01091-.10823.00464-.04541.0109-.10775.00472-.04671.01042-.10181.00578-.05591.01-.09765.00553-.05331.01017-.09774.00562-.054.01042-.09977.00553-.05249.01025-.09733.006-.05648.01025-.09685.00594-.05533.01017-.09522.00594-.05542.01075-.09961.00553-.0511.01058-.09758.00635-.05819.01041-.0948.006-.0551.01074-.09741.00586-.0529.01107-.09928.0061-.0551.0105-.09358.00667-.05949.01066-.0944.00619-.05526.01106-.09733.00594-.05184.01148-.10083.00618-.05347.01075-.09367.00708-.06128.01058-.0909.00691-.06006.01083-.09252.00651-.05575.01155-.09806.00643-.05477.01107-.09326.00692-.05868.01139-.0957.00659-.05469.01156-.09668.00635-.05265.01212-.10043.00643-.05281.01147-.09457.007-.05761.01188-.09693.00652-.05289.012-.0975.00659-.05338.01229-.0992.00659-.053.012-.09619.00684-.05453.01261-.10075.00611-.04818.01318-.10441.0057-.04516.01359-.10669.00586-.04631.01269-.09887.007-.05485.01286-.09986.00627-.04834.01342-.10335.00619-.04761.01351-.10359.00626-.04834.01319-.1001.00667-.051.01351-.10229.00635-.0481.01416-.10636.00553-.04126.01522-.11426.00488-.03613.01465-.10913.006-.04444.01473-.10921.00537-.03971.01539-.11263.005-.03752.0162-.11776.00431-.03165.016-.11654.00488-.03548.0166-.11963.00407-.0293.01669-.11971.00447-.0319.01652-.11816.00464-.033.016-.11336.00545-.03882.01587-.11141.00554-.039.01644-.11564.0048-.03329.01709-.11947.00447-.03133.01644-.114.00545-.03752.01775-.12239.00374-.02556.01929-.13281.00244-.01619.02034-.13892.00163-.011.01937-.13183.003-.02035.02116-.14266.00081-.00545.02214-.14835.00024-.00179c.22477-1.50367.46794-3.00725.72738-4.49927l.00171-.00985.02441-.14014.00106-.00577.02531-.14478.00008-.00024.0262-.149.00009-.00049.02579-.14608.00228-.01285.02458-.13835.00073-.00407.02564-.14372.00195-.01066.02458-.13712.00284-.016.02344-.13029.0048-.02628.02238-.1237.00391-.02157.02295-.12638.00472-.0262.0223-.12191.00488-.02694.02246-.12223.00472-.02572.02295-.12475.00366-.0197.024-.12988.00325-.01758.02442-.13151.00309-.01652.02417-.12939.00464-.02507.02336-.12435.00406-.02164.02385-.12688.00423-.02254.02384-.126.00416-.022.02392-.12589.00448-.02368.02409-.12614.00366-.01937.0249-.12972.00366-.019.02425-.12614.00513-.02678.023-.11914.00619-.03222.02294-.11809.005-.02588.02409-.12386.00464-.02384.02417-.12329.00488-.02507.02441-.124.00456-.02344.0249-.1263.00383-.01937.02539-.12777.00448-.0227.02425-.12183.00577-.02905.02352-.11776.00627-.03125.02384-.11906.00513-.02555.0249-.12337.00489-.02442.02514-.12418.00456-.02246.02531-.12492.0048-.02352.02588-.1272.00366-.01758.02629-.12841.00447-.022.02539-.12353.00513-.02507.02458-.11922.00651-.03149.02458-.11833.00545-.0262.02539-.1224.00529-.02515.02612-.1254.00415-.01962.02653-.12662.00464-.022.02783-.13232.0022-.0105.02889-.13688.00244-.01123.029-.13672.0022-.01025.02832-.13314.00358-.01676.02913-.13632.00163-.00765.0293-.13663.00277-.0127.02921-.13574.00228-.01058.02889-.13346.00334-.01547.06168-.28385.00187-.00855.02987-.13647.00244-.01115.02873-.13078.00407-.01855.03027-.13729.0013-.006.03125-.14112.00131-.0061.06461-.29061.00057-.00252q.98487-4.41162,2.16952-8.741l.00016-.00073c.21-.76823.42578-1.53792.6451-2.30233l.00065-.00236.04077-.14176.00041-.00147.04069-.14111.0009-.00309A191.90838,191.90838,0,0,1,121.305,119.17432a10.66667,10.66667,0,0,0-7.50341-18.24862Z" style="fill:#6b3062"/><path d="M279.56494,44.35a10.66722,10.66722,0,0,0-1.25586,21.25862,190.99777,190.99777,0,0,1,107.14608,49.03589l.00521.00472c.17659.16187.34879.32023.52482.48275l.0061.00561c.07479.069.14331.13233.218.20158l.008.00741.0712.066.0057.00521c.07463.06925.1451.13468.21964.204l.00489.00455c.07454.06934.14787.1377.22233.20712l.00154.00146c.10075.094.19808.18506.29859.27922l.00342.00325c.0743.06958.14347.13452.21769.20427l.00822.00773c.10034.09432.19433.18294.29451.2775l.00513.00481c.1001.09456.19556.18489.29557.2797l.00293.00285c.0739.07.147.1394.22071.20963l.00211.002c.09985.095.19719.18774.29671.28287l.00074.00065c.07356.0704.14811.14169.22159.21216l.00179.00163c.27238.26107.54249.52148.81332.7841l.00236.00236.21.20386.01709.0166c.0944.09188.19.18514.28426.27718l.0092.009.20743.203.01294.0127.06641.06518.007.00676c.06836.06714.14331.14079.21159.208l.00814.008.204.20109.01733.01718.06535.06453.008.00789.13273.13135.00822.00814.06267.06209.02246.0223.19759.19621.01294.01294.06689.06657.00537.00537.13664.13623.00619.00618.06616.06608.01139.0114q.10169.10156.20353.20369l.01351.01351.06641.06657.00635.00643.20174.20272.02612.02636.05754.058.0004.0004.13257.13363.01815.01847.06185.06242.0144.01457c.06739.06811.13111.13265.19841.20093l.01806.01831.19865.20174.012.01221.06648.0677.0079.008.19987.20394.022.02246.06014.06144.003.00309.12264.12566.02669.02734.05526.05664.02547.02612.10555.10848.02393.02458.05379.05542.02734.02808.05868.06038.00488.00513.12053.12435.02555.02628.05745.05941.02173.02246.18726.19393.02425.02515.05794.06014.01188.01236.11272.11719.02767.02873.05167.05379.0328.03426c.0581.06047.121.12606.17895.18669l.025.026.05574.05827.02613.02734.10327.10824.02173.0227.05753.06039.02612.02742.17587.18482.0354.03735.04785.05029.04215.04452.07316.07723.04371.04614.04329.04574.0446.04712.04207.04451.07682.08138.0385.04085.0437.04631.046.04883.04142.04394.07153.07609.04688.04981.04166.04443.04631.04932.0389.04142.07585.081.03906.04167.0498.05322.03752.04012.05615.06014.052.05567.05485.05884.0389.04174.04761.051.04118.04427.07389.07943.04.043.04736.051.03662.03947.06291.06787.041.04427.05949.06413.04174.04517.04558.04931.03882.04191.07552.08179.04069.04411.04337.04712.044.04777.04573.04964.05966.06486.05143.056.0424.04622.046.05013.03825.04167.07788.085.03263.03565.05.0546.03963.04338.055.06014.0389.04264.0695.07617.03345.0367.05363.05892.03345.03671.066.07259.05046.0555.04443.04883.04232.04671.04476.0494.04956.0546.06258.06918.03752.0415.05013.05534.03784.04191.07552.08366.03052.03385.05436.06022.03524.03915.054.06.043.04793.06446.07161.03792.04232.05143.05729.03028.03377.0804.08969.02612.02913.05917.06624.03336.03728.05721.064.02726.03052.07805.08748.033.03711.05355.06006.03328.03744.08016.09017.01774.01985.06315.07121.03532.03971.05917.06673.02392.0271.08065.09107.02848.03223.05868.06632.02669.03027.08244.09335.01448.01644.07471.08479.02026.023.0717.08146.016.01823.08252.09392.02572.02929.05867.0669.0328.03743.07821.08928.01489.01692.0699.08.02588.02954.06682.07658.01993.02279.08122.0931.02612.03.06.06892.02588.02971.08276.09513.00977.01123.076.08757.02425.02791.06405.07389.02148.02491.08285.09562.01855.02148.06812.07878.02335.027.16708.19384.02351.02727.07333.08528.01041.012.08716.10148.01367.016.07186.08374.02059.02409.078.091.01106.01294.08212.09595.01717.02018.07169.0839.01628.019.08626.10123.00781.00912.07748.09106.01945.02279.16732.197.0227.02677.06812.08033.01757.02075.08073.09546.02368.02807.06478.07666.0184.02173.07967.09448.00675.008.08439.10018.01782.02116.06983.08309.01709.02034.08358.09945.014.01668.07015.08366.0232.02767.16382.1958.02408.02881.065.07788.01888.02262.08349.10018.01017.01221.07414.089.01872.02254.07755.09334.00708.00855.08594.1036.01294.01562.0721.087.01677.02026.08406.10164.00822.00993.07544.09139.0201.02434c.05738.06949.11215.1359.16936.20548l.0087.01066.08187.09953.00684.0083.1748.21314.00977.01188.08577.1049.00074.00081.08886.10872.00594.00733.08155.09993.00846.01034.17326.21289.01147.01408c.05681.0699.11548.14217.1722.21224l.00863.01058.07967.09847.00863.01066c.05672.07007.11588.14331.17244.21346l.01042.01294.08016.09936.00643.008.088.10937.00138.00171.08545.10637.00611.00756c.05908.07365.11572.14421.17472.21794l.00667.0083.17546.21956.00138.00171.08708.10922.00293.00366c.14982.18807.2963.37264.44547.56128l.0009.00114.17716.22436.002.00252c.09041.11467.17431.22136.2644.33619l.00236.003a191.31425,191.31425,0,0,1,29.79745,54.08414q.10155.28564.21728.56185.07812.27272.17171.54427.19263.55384.382,1.10889A10.66667,10.66667,0,1,0,457.6429,187.187l-.425-1.23332q-.11012-.3192-.238-.6267-.08789-.30274-.1945-.60336c-26.96142-75.94734-96.0367-131.01888-175.977-140.30143a10.7823,10.7823,0,0,0-1.24357-.07218Z" style="fill:#6b3062"/><rect x="128" y="42.66667" width="64" height="21.33333" rx="10.66666" ry="10.66666" style="fill:#dca7be"/><path d="M464.249,162.65592a10.67321,10.67321,0,0,0-9.90966,14.60832A212.28025,212.28025,0,0,1,469.33333,256c0,117.63241-95.70092,213.33333-213.33333,213.33333A213.73538,213.73538,0,0,1,81.20638,378.33919a10.66663,10.66663,0,1,0-17.46582,12.2496,235.60707,235.60707,0,0,0,16.03475,20.37784l.00635.00725c.19026.21622.37719.42781.56827.64331l.00236.00268c.11947.13469.23576.26563.35556.40007l.00349.004c.07186.08064.13916.15608.2111.23657l.00985.01107.13517.1512.00285.00317c.19206.21468.38127.42538.57414.63925l.00439.00488c.12053.13371.23853.2644.35938.39778l.00065.00074q.28992.32019.58049.63867l.00073.00081c.11832.12964.24007.26286.35864.39217l.00912.00993c.19449.21232.38281.417.57812.62858l.00692.00749c.43945.476.87345.94214,1.31681,1.41455l.00676.00724c.197.20988.38883.4135.58666.62273l.00692.00732.13444.14209.0131.01375c.07422.07837.14177.14958.21607.22787l.00667.007c.12394.13045.24121.25366.3654.38387l.00586.0061c.19572.20508.39054.40853.58691.61287l.01831.019c.19646.20426.389.40389.5861.6075l.01156.01188.13769.14209.0066.00676c.07519.07747.14778.15226.22306.22965.00513.00529-.00407-.00415.00106.00106.1254.129.24577.25244.3715.3811l.0096.00985.22127.22616.00139.00138.14852.15145c.00512.00521-.00253-.00261.0026.00268l.22135.22518.01286.013.13428.13631.01286.013.21818.22094.01294.013.21891.22111.00855.00863.13452.1355.01806.01823c.06975.07023.14624.14713.21615.2172l.01587.016.13175.13208.01416.01424c.07308.07325.1447.14494.21794.218l.01636.01644.136.13566.00887.00895.07422.0739c.00513.0052-.00057-.00049.00464.00464l.13249.132.029.02889c.07015.06983.13941.13859.20972.20826l.02409.02392.126.12484.0166.01644c.07032.06966.14372.14225.21412.21183l.0271.02669.11694.1154.02588.02547.06819.06722.01913.01888.12378.12175.02718.02669.11849.11646.026.02555.06787.06649.02108.02067.1272.12459.01855.01815c.074.07234.146.14282.22005.21509l.01343.013.12939.12614.02247.02189c.07088.06909.14323.13948.21419.20841l.02506.02433.12582.12216.019.01839.06689.06486.03467.03361.10409.10075.04126.03987.20939.20215.02222.0214.11645.11223.03247.03125.06787.06526.00879.00847.13338.12817.03117.02987.12582.12069.01644.01578.07145.06836.01912.01839.12647.12085.02449.02344c.07154.06836.14388.13745.21558.20573l.02767.02629.123.1171.02035.01937c.07178.06828.14762.14038.21948.2085l.02116.0201.12614.11946.02425.023.06706.06348.03051.02881.11776.11133.02726.02571.127.1198.01929.01823.07006.06591.02735.02588.10734.10091.04793.04509.05518.05176.08569.08056.05835.05469.0459.043.09692.09082.04492.042.063.05892.03068.02865.11434.10677.03532.03287.1154.10775.02661.02458.069.06429.03271.03044.10979.102.03857.036.10466.097.04077.03776.06242.05794.0441.04086.094.08691.04842.04492.06087.05616.04663.04313.096.08838.047.04329.10009.09229.039.0358.06705.06169.041.03776.1005.09228.0411.03776.07845.072.06909.06331.05583.05111.0564.05159.08455.07731.05615.05127.05444.04981.089.08121.05258.04786.056.0511.08927.08122.04639.04215.06469.05876.047.04264.094.08529.0503.04574.07324.06624.07243.06559.05526.05.05249.04753.09244.08349.04891.04427.05632.05078.0874.07878.05811.05225.05436.049.08024.07226.06242.056.05591.0503.08829.0791.053.04752.05746.05143.05924.05306.08309.07439.05355.04785.07015.06266.066.05892.07064.063.04557.04069.09318.083.05192.04622.0651.05778.07211.06413.06258.05566.05542.04916.09212.0817.04338.03841.07723.06836.04671.04134.08943.0791.04745.04183.08968.07911.05192.04589.06608.05827.04785.042.09619.0848.04493.03955.07885.06918.064.05615.06478.0568.055.04834.09115.07975.05192.04558.06266.05469.06665.05826.07585.06625.0485.04231.08651.07553.06038.05257.06217.0542.05209.04524.08984.07813.05746.05.05623.04882.08944.07764.0498.04313.06014.05209.08862.07666.05689.04931.05607.04834.08439.07292.06209.05355.0551.04752.09082.07829.05314.04574.06478.05582.04419.03793.09627.08268.05331.0459.06787.0581.07739.06641.058.04964.05982.05127.08716.07438.05533.04737.06519.05566.07275.06217.06617.05632.05582.04752.08415.07178.06291.05339.05761.049.07642.06494.06974.05908.05428.04606.08439.07162.0612.05176.05721.0485.06763.05713.07869.06657.06014.05061.057.04818.08732.07357.059.04964.05583.047.09261.078.05542.04655.05754.04818.08113.06819.06421.05388.0564.0472.0948.07943.04745.03971.06787.05664.05257.04395.094.07845.05224.04362.06584.05485.08227.06852.05762.048.057.04737.089.07389.061.05078.05876.04867.07991.06624.06454.05355.06144.05078.05021.0415.10173.08415.04093.03385.10734.08855.046.03792.06258.05159.05933.04883.08521.07015.06331.05192.05281.04346.09058.07438.063.0516.05591.04589.085.06967.05933.0485.06014.04915.09179.075.0551.04493.05916.04834.09066.07389.05672.04622.062.05046.06885.056.07536.06136.0616.05.05428.04394.09522.07731.05119.04151.08016.06494.06282.05078.0717.05794.05444.04395.09538.077.05428.04379.05843.0472.088.0708.06185.0498.05575.04476.07983.06413.0717.05762.06.04817.06763.0542.08187.06559.058.04639.06552.05257.07942.06348.06462.05143.05306.04248.0966.077.05615.04476.05989.04769.086.06836.06462.05143.05705.04524.09448.075.05363.04248.06575.05224.05363.04248.091.07194.06071.048.06876.05436.07569.05973.066.05209.05533.04362.09644.076.05322.04183.07178.05647.06885.054.07381.05794.05306.04167.09725.07617.05355.042.06884.05388.06633.05192.07975.06233.05624.04395.09423.07357.052.04053.06689.05208.05566.04346.09554.07421.05461.04248.06909.05372.07967.06184.07048.05469.048.03711.10376.08041.047.03629.07617.05892.06388.04932.07732.05973.05859.04525.08618.0664.06209.04785.06763.05193.05778.04459.09448.07259.05323.04086.06982.05354.08228.06315.06355.04867.0538.04118.09936.076.05241.04.078.05957.0555.04231.08895.06771.05087.0389.09822.07471.05575.04248.0629.04785.06828.05176.08277.06283.05883.04459.06909.05241.081.06136.06559.04964.05664.04281.09375.0708.06193.04671.06112.04606.088.06641.05884.04427.06364.04785.0957.07194.05208.03923.06991.05241.07829.05875.06909.05176.064.048.05917.04428.09489.071.05493.041.05941.04444.09765.07275.05477.04086.0752.056.07576.05648.06812.05062.0581.04313.09815.07292.05273.03922.07153.0529.06568.04867.08716.06461.047.03467.10173.07536.05452.0402.07227.05339.04883.036.1049.07731.04834.03564.09253.068.05542.04069.07747.0568.05094.03743.1023.075.05387.03955.07121.05208.07414.0542.077.05632.0551.04036.09863.07194.05461.03971.07381.05388.04435.03239.10514.07633.05306.03858.092.06689.0564.041.075.05436.05526.04.09969.07226.054.03906.08032.058.05932.043.08554.06168.05126.03695.10222.07373.05265.03792.07373.05306.06177.04444.09237.0664.04858.03483.11027.0791.03483.02491.08651.062.04736.03385.10645.07617.04646.03321.08415.06006.07178.05127.07479.05322.05176.03695.10213.07259.05705.04069.06966.04948.07088.05029.07991.05664.05526.03922.10685.07569.04322.0306.0791.05582.05078.036.1075.07585.0446.03158.09489.06689.05851.04118.08049.05664.04834.034.10367.07275.05616.03955.07552.0529.0651.04557.08846.062.04867.03418.10872.076.04207.0293.08871.062.03792.02653.115.08008.03939.0275.11605.08073.03263.02263.09619.06689.04045.028.10758.0747.05363.03711.08342.05778.0568.03939.09009.06234.04883.03369.1088.0752.04582.03157.07992.055.06616.04558.08724.06006.054.0371.10287.07081.05192.03564.07536.0516.05053.03466.10588.07259.05257.036.08456.05778.07014.04786.07138.04882.0625.04265.09969.06787.05558.03792.06673.04541.08936.06071.06779.04606.05932.04037.08171.05534.08056.05468.06136.04151.07976.05387.078.0529.06747.04557.05908.03988.09326.06282.0682.04606.05436.03646.10359.06983.05957.04.0647.04345.091.061.06974.04671.05851.03939.10107.06754.05746.03841.072.04818.04989.03337.10335.069.06152.041.0822.05485.07015.04655.074.04932.05778.03841.101.06706.05917.03922.074.049.07682.051.07463.04948.05884.0389.10189.06738.05851.03857.06779.04476.09033.05941.06584.04346.06592.04329.08862.05843.06746.04427.06535.043.06128.04021.102.06673.05664.03711.07682.05029.08187.05355.07349.048.05371.03516.1097.07145.04915.03206.08065.05258.06771.04394.08333.0542.06022.03922.09278.06023.06681.04329.07048.04574.059.03808.10384.06722.0555.036.07674.04948.085.05485.06641.04281.05819.0376.10457.06722.05835.03759.07178.04606.08422.0542.07243.04639.06356.04085.10026.06413.05876.0376.0695.04443.05892.03776.10083.06429.05908.03776.08122.05176.07584.04834.07691.04883.054.03434.10563.06722.0573.0363.07918.05013.07308.04638.078.04932.05925.0376.10611.06706.04924.03108.088.0555.049.03093.10726.06754.04964.03125.10653.06706.05615.03516.07333.04606.05656.03548.106.06657.054.03369.0944.05908.06047.03793.08072.05029.06088.03808.1049.06543.05395.03353.07943.04948.06193.03858.09977.062.04557.02832.11377.07064.05144.0319.0817.05062.04826.02978.11165.06917.05249.03239.096.05925.06161.03808.07877.04851.05583.0345.10807.06641.0564.03467.07951.04882.06982.043.0883.054.05648.03467.10628.0651.05518.03369.08284.05062.0415.02539.114.0695.05517.03369.09042.05518.071.04313.0739.04492.06054.03679.10515.064.05712.03451.08309.05045.068.04118.08683.05241.054.03271.10922.06592.05379.03239.08293.05013.05778.03467.10245.06185.05152.03092.11572.0695.04118.02474.08488.05094.05387.03223.11.06592.05224.03125.09058.0542.06966.04167.08374.05.05347.03174.11051.06592.055.03271.08089.04818.06136.03646.09725.05778.05468.03239.10954.06494.05664.03353.07308.04329.05917.035.11108.06559.04964.0293.09847.0581.06112.036.08773.0516.04785.02815.11238.06608.05754.0337.08284.04866.063.03695.09717.0568.052.03044.113.06608.04972.02913.08212.04785.05118.02995.11149.06494.05567.03239.092.05339.06917.0402.08415.04883.05127.02978.11125.06446.057.033.08643.05.06445.03728.08879.05127.05745.0332.10946.06315.05566.0319.07528.04346.08569.04915.07829.04509.06339.03629.106.06087.05208.02979.085.04866.048.02751.11434.06527.0529.03027.09749.0555.06209.03548.08521.04851.0594.03369.10832.06168.05892.03353.07186.04069.08366.04753.08276.04671.0577.03272.10832.06136.0612.0345.0712.0402.07276.041.09513.05355.063.03548.08057.04541.08121.04557.07561.04248.05851.03288.10783.06039.06616.0371.06136.03435.10352.05778.06819.03808.06608.037.10384.05778.06315.03516.07146.03987.05835.03239.1062.05908.06421.03565.08838.049.07275.0402.07764.043.06136.034.10734.0594.05892.03239.08406.04639.07471.04118.08358.04606.05916.03255.10913.0599.05835.03206.07935.04362.07381.04037.08968.04915.06217.034.10669.05843.05721.03108.07642.04183.05965.03256.10734.05843.06356.0345.07373.0402.09562.05192.07064.03825.06038.03272.11353.06152.0529.02865.086.04655.066.03564.09367.05062.05957.03206.11206.06039.05453.02929.08325.04476.051.02751.11962.06429.04843.02588.09464.05078.07552.04037.08236.0441.05119.02735.11759.06282.05119.02735.10425.0555.0341.01806.11987.06381.04687.0249.12134.06445.04159.02214.09757.05159.04362.02328.11686.06168.05575.02963.096.05061.07039.03711.08724.04606.05021.02637.11662.06136.05461.02865.09586.05045.05672.02979.09782.05127.05436.02848.11866.062.04337.02263.10116.05289.04085.02133.12028.06266.051.02669.108.05615.06526.03386.07691.04.05778.02994.1123.05827.05762.02979.098.05078.0621.03206.08968.04623.06.03092.11394.05892.05322.02734.08382.04314.07194.03694.09554.049.05575.02865.10034.05143.07519.03858.07666.03922.0551.02816.11613.05924.05721.0293.09424.048.07015.03581.085.04313.056.02849.11531.05859.05648.02865.08594.04362.07422.03759.09106.04606.0599.03028.11051.05583.06039.03043.0826.04167.04874.02457.11768.05925.05859.0293.09709.04882.07072.03549.08057.04036.062.03109.111.0555.06014.03011.08431.04216.08146.04052.07927.03955.0651.03239.1075.05339.06608.03288.07788.03873.06568.03255.10441.05176.0564.02783.12.05941.0459.02263.08667.0428.05916.0293.11149.05485.06055.02978.0905.0446.07552.03711.08528.04183.05868.02865.11409.056.06153.03012.07723.03776.0804.03922.08887.0433.06234.03043.10668.05192.06747.03288.07283.03548.07186.03483.10466.05078.06193.03.08162.03955.0909.04395.07333.03548.06437.03109.106.0511.07462.036.06486.03125.09514.04574.08162.03922.06405.03077.11076.05306.06323.03027.07137.03418.08838.04232.08512.04052.06641.03174.0865.04134.0835.03972.08032.03825.06031.02864.10978.05208.06942.03288.07657.0363.08619.04085.07893.03727.06731.0319.11165.05274.05933.02783.08121.03825.0791.03727.09327.04395.0616.029.10433.04883.068.0319.078.03662.06217.029.11027.05159.06568.0306.08846.04134.07657.03565.08635.0402.06128.02848.1145.05323.0603.028.07976.03695.07771.036.098.04541.05436.02506.12044.05567.0533.02457.08789.04053.05363.02474.11735.05388.06031.02783.09822.04492.07.03223.08805.0402.0538.02474.12337.05631.05216.02393.09.041.07878.036.09025.041.06152.028.11011.05013.06982.03158.07113.03223.06941.03157.105.04753.06876.03108.08106.03663.09033.04069.07853.03532.06112.02766.11727.05274.05745.02572.09074.04085.07837.035.08594.03858.06241.028.114.05094.06315.02816.07975.03565.08447.03759.08667.03858.06885.0306.11458.05094.05111.02263.08822.03922.05688.02523.11865.05241.05738.02539.08748.03857.09033.03988.07943.035.06315.02783.11581.051.063.02767.07243.03174.10563.04638.06592.02881.07666.03353.07324.03206.10474.04574.06421.028.09513.04134.08806.03842.06941.03011.06641.02881.11255.04882.06575.02849.06739.02929.11181.04834.0708.0306.07015.03028.099.04264.07927.03418.06836.0293.11149.048.06518.028.0756.03239.06617.02832.11124.04753.06324.027.08732.03743.08992.03825.07959.034.06242.02653.11418.0485.06771.02881.075.03174.10123.043.06787.02881.07626.03222.10734.04525.06689.02832.07674.03239.09546.0402.081.034.06836.02864.08658.03646.09481.03972.06682.028.07015.02946.10856.04525.07226.03027.07731.03223.09953.04134.07145.02978.07284.03028.11035.0459.06828.02832.07283.03011.09156.03792.08732.03613.06372.02637.09415.03874.09294.03841.065.02669.09929.04085.08146.03353.0769.03158.06063.02474.1211.04964.0568.02327.07812.03191.105.0428.0787.03207.06014.02457.11605.0472.06982.02832.07162.02914.10042.04069.079.0319.07462.03027.06666.02686.11059.04476.06779.02734.08838.03548.0896.03613.07446.03.08008.03207.10181.04085.06917.02767.084.03369.083.0332.08683.03467.06617.02637.1136.04525.0691.0275.07446.02946.09521.03792.08358.03305.06869.02718.11393.04508.064.02539.07308.02881.08773.03467.09587.03776.06868.027.08016.03141.09717.03825.08065.03157.0638.02491.11824.04638.06421.02507.07935.03092.08675.03386.08984.035.06568.02555.11963.04639.05818.02262.08488.03288.06063.0236.1237.04769.05526.02148.10425.04021.07234.02783.09017.03467.05778.02229.12134.04672.062.02376.09245.03532.06787.026.10563.04037.05957.02278.11857.04525.06616.02523.074.02815.08366.03174.09871.03744.06657.02539.09562.03613.08065.0306.08773.033.06046.02295.11776.04427.06681.02523.08537.03206.08789.033.08212.03093.06909.02588.11719.04378.06282.0236.08.02978.1001.03744.07983.02978.07023.026.09985.03727.08106.02995.07544.028.06665.02474.11865.04395.06185.02278.09733.036.08065.02979.08528.03141.06706.02458.11947.04394.06152.02263.07821.02864.1018.03727.08.0293.06755.02458.099.03613.08691.03174.07235.02637.09611.03483.08716.03173.07291.02637.08773.0319.08464.0306.0874.03158.06063.02181.12166.04394.06315.02263.08333.02994.095.03418.08667.03109.06364.02279.12142.04345.05876.021.09074.03239.05347.019.12223.04362.065.02311.106.0376.07007.0249.08992.03191.06332.02229.12076.04281.06161.02165.09114.03222.0835.0293.08919.03141.06633.02344.11751.04118.0647.02262.08716.0306.07706.02686.10083.03532.06706.02327.12118.04232.05656.01953.08479.02946.06511.02262.11841.041.06543.02279.085.02929.10189.03516.0756.0262.06876.0236.12085.04167.06161.02116.0848.029.09033.03109.08732.02978.0695.02377.11011.03759.07373.02523.07853.02669.08081.02751.10571.03581.06747.023.07885.02669.10775.03646.07528.02539.0647.022.1206.04069.0669.02246.08886.02979.07585.02555.10319.03467.0616.02051.12272.04117.06194.02068.08276.0275.07414.02474.11027.03679.06437.02132.09977.0332.08179.027.08919.02962.06087.02.12118.04.06592.02181.093.0306.0765.02523.09782.03206.06177.02034.12687.04151.05135.01676.10311.03369.05705.01872.11808.03841.06274.02051.11092.036.074.02409.0848.02751.06119.01969.12444.04036.06014.01937.10636.03435.07137.02295.09294.02994.06681.02149.12288.03939.058.01855.096.03076.06722.02149.112.03564.05713.01823.12679.04036.06177.0197.08838.028.05941.01888.12329.03907.06608.02083.10018.03157.07633.02409.09286.0293.06128.01921.12394.0389.06486.02034.08407.02637.0948.02962.08871.02767.06868.02148.11768.03663.069.02148.08154.02539.06519.02018.12.03711.06494.02018.10222.03158.08016.02474.08886.02734.06324.01937.12361.03809.0634.01937.097.02978.07666.02344.09554.02913.06576.02.12223.03727.06429.01954.09.02734.06811.02067.11565.03516.06014.01806.13069.03955.04631.014.10164.0306.05615.01693.12777.03841.05916.01774.10328.03092.07934.02377.09123.02718.06689.02.12321.03662.06153.01839.09236.02734.07357.02181.10881.03223.05973.01774.13078.03858.05029.01481.101.02978.05412.01595.13338.03923.052.01513.119.03483.06169.01807.10384.03027.05314.01563.12964.03776.06144.01774.10083.0293.06291.01823.116.03353.0555.01611.13224.03808.05119.01482.10164.02929.05176.01481.1307.0376.05761.01644.12435.03565.05485.01562.10669.03044.05282.015.12606.036.06656.01888.0997.02816.06917.01969.10612.02995.05981.01693.13.03662.05289.015.10189.02849.06568.01855.119.03337.05518.01546.13355.03727.04931.01367.10213.02849.05453.01513.12907.036.05941.01644.11458.03174.06177.01709.10506.029.05924.01628.13257.03645.05013.01384.10645.02913.06233.01709.12037.033.05143.014.13607.03711.05086.01383.10319.028.05338.01449.12818.03483.06421.01741.11035.02979.06738.01806.10392.028.05176.014.13534.03629.05452.01465.10612.02832.06567.01758.11589.03092.05355.01433.13395.03564.053.014.106.02815.0459.01221.133.03516.06071.016.12687.03353.053.014.10181.0267.06046.01578.13.034.05371.01416.12036.03141.04826.01254.12215.03174.05111.01334.13541.03516.05217.01351.10767.02783.05135.01318.12931.03337.05908.01514.136.035.03857.00993.11532.02946.04728.012.138.03532.05013.0127.12817.03271.04623.01172.1241.03141.04256.01074.14527.03679.041.01025.12264.03093.03475.00879.14063.03531.05086.0127.14054.03516.03931.00976.12093.03028.04061.01009.143.03548.048.01188.12378.03076.06112.01514.10839.02669.05087.01253.13476.03321.057.014.11556.02832.04386.01075.13119.03206.05314.013.13468.03272.05461.01334.10368.02523.04842.01172.13835.03336.05322.01286.12947.03125.05355.01286.11174.02686.04956.01188.13615.03271.05346.0127.12281.02929.04679.01124.11979.02848.05689.01351.13623.03222.04646.01107.12.02832.03874.00912.13948.03287.05485.01286.13591.0319.04769.01123.10929.02539.04948.01156.13835.03223.05127.012.11979.02783.06779.01563.09953.02295.06575.0153.13143.03027.0533.01221.1119.02571.04549.01042.13623.03109.0494.01139.14054.03206.04826.01091.11312.02572.046.01041.13932.03158.054.0122.12525.02816.05818.01319.10645.02392.05485.01221.13639.0306.05469.0122.10937.02442.06592.01465.11947.02653.05249.01172.13753.03043.05119.01123.11344.02507.04037.00879.14005.03092.05575.01221.13094.02864.05558.01205.10433.02278.05843.0127.13452.0293.05445.01188.12329.02669.04622.00993.12158.0262.05762.01237.13322.02865.05745.01237.109.02327.04549.00977.13762.0293.05762.0122.1381.02946.04524.00944.10271.02181.06315.01335.13086.02751.05875.01237.11255.02376.07154.015.10774.02246.0564.01172.13509.02816.05957.01237.09953.02067.07015.01449.114.0236.06405.01318.13175.02718.06022.01237.09392.01921.06274.01285.1346.02751.05567.01139.12093.02458.06486.01318.10832.022.05257.01058.136.0275.05974.01189.11222.02262.05379.01074.127.02539.05623.01123c.04484.009.09066.01823.1355.027l.054.01074.10726.02132.049.00977.13876.02734.0546.01091.14218.028.03686.00716.12451.02442.04468.00879.14.02734.05583.01091.12972.02506.03288.00651.13411.02588.0516.01009.14168.02718.046.009.11426.022.05924.01123.12948.02474.05241.01009.14315.02718.04134.00781.11906.02263.046.00878.14192.0267.04924.00928.141.02652.03393.00635.12981.02425.0498.00928.142.02653.04923.00912.11394.02115.0542.0101.13273.02441.05086.00944.14168.026.05046.00928.11124.02034.04916.009.13924.02539.05729.01041.136.02474.04256.00765.12.02165.0485.00879.14152.02539.05379.00976.11133.01986.06925.01237.11784.021.05567.00993.139.02474.05054.00878.11572.02051.04216.00749.14127.02474.05673.00993.1403.02457.04272.00749.1193.02083.04834.00831.143.0249.04907.00846.12988.02246.04452.00765.12923.02214.04972.00846.1447.02474.04427.00765.12752.02165.03467.00586.1451.02457.0529.009.144.02425.041.00683.11874.02.04777.008.1429.02376.05208.00879.12151.02018.06543.01074.11588.01921.05143.00846.14453.02377.045.00732.12614.02067.03475.0057.14461.0236.05338.00862.14242.02312.04565.00732.12.01937.04395.00716.14689.02344.04769.00765.13964.0223.04753.00765.11792.01871.04907.00782.14437.02278.04972.00781.129.02035.03622.0057.14241.02213.04915.00781.14413.0223.04549.00716.12443.01921.03727.0057.14364.02213.058.009.13566.02084.05038.00765.11613.01774.05053.00765.14209.02148.05054.00765.14551.022.015.00228.14673.022.04818.00717.1512.02262.03077.00456.14542.02164.02393.00342.15267.02263.046.00667.15063.02213.03207.00472.13671.02.03321.00472.15551.02263.03646.00537.15389.02213.02718.00391.13762.01969.04321.00619.15593.0223.02669.00374c.04565.00651.10677.0153.1525.02165l.01775.0026.15885.02246.03581.005.15372.02148.04061.0057.13.01807.03629.0052.15308.02116.03979.00554.15788.02181.016.00211.14876.02035.03451.00472.15617.02132.03621.005.14624.01969.019.0026.15983.02149.035.00472.15649.021.0328.0044.1486.01969.017.00228.16073.02132.03637.00489.16032.021.01717.00228.14738.01921.03711.00488.15365.02.03808.00488.15316.0197.016.00211.1517.01953.04077.00521.15071.01921.043.00537.13819.01758.02465.00309.15935.02.03475.00439.16381.02051.01075.0013.15519.01937.03076.00374.15828.01954.03394.00423.16195.01985.01456.00179.14836.01807.04028.00488.1534.01872.03907.00456.14274.01725.021.00244.158.01888.039.00472.15559.01856.03345.0039.13664.01612.03572.00423.15528.01807.03906.00455.15584.01823.028.00326.13843.01595.0389.00439.15022.01725.04843.00554.13549.01546.02889.00326.14934.01692.04793.00537.14835.01677.04354.00488.12565.014.03988.00439.14933.0166.04834.00521.15227.01677.02962.00325.13826.01514.03923.00423.14835.01611.05127.00554.14152.01513.026.00277.14567.01563.045.00472.152.01611.03947.00423.13175.01384.03817.00407.14852.01546.04972.00521.15015.01546.03922.00407.12354.01269.04866.00489c.04623.00488.09823.01009.14445.01481l.05314.00537.14356.01448.03426.00358.13346.01335.05.005.14787.01464.04655.00456.12565.01253.04256.00407.14754.01449.04509.00439.15275.01481.0389.00375.13436.013.03426.00325.15372.01482.04607.00423.15519.01481.02148.002.14885.014.03108.00293.16171.01514.03206.00293.15112.014.01978.00179.15983.01465.03719.00342.15853.01432.03125.00293.14819.01319.02287.00211.15658.014.04638.00407.15414.01367.02742.00244.1451.0127.03223.00276.1591.01384.03662.00309.16219.014.0035.00032.16284.01384.0367.00309c.04647.00407.11117.00944.15764.01335l.03531.00293.14625.01237.02343.00195.15568.01286.0468.0039.15633.0127.02376.00195.14681.01205.03288.0026.157.01253.04045.00326.16015.01286.016.00114.15357.0122.03361.00261.161.01253.033.0026.1473.0114.02319.00179.15641.012.04517.00342.15568.01172.03052.00228.142.01058.034.0026.15853.01172.03727.00277.1604.01171.02393.0018.14876.01074.03052.00228.1595.01139.03866.00277c.1088.00781.22249.01578.3313.02343l.03483.00245.16162.01106.02783.002.15218.01041.02173.00147.16349.01107.03443.00244.16365.0109.02043.0013.15479.01026.02709.00179.16407.01074.03011.002c.109.00716.23063.01481.3396.02181l.02872.00179.1683.01058.01855.00114.16773.01058.00993.00049.17065.01058.02678.00163.16837.01009.019.00114.15983.0096.02035.0013.16618.00977.03214.00179.169.00993h.00081l.16529.0096.0354.002.163.00928.02718.00146.16032.009.01286.00065.16675.00928.03255.00179.161.00862.03524.00195.14241.00765.03036.00163.16015.00847.03939.00195.16048.0083.024.0013.14152.00716.04224.00228.1582.00781.03581.00179.15551.00782.01343.00065.16529.008.03605.00179.16064.00765.03166.00147c.05477.0026.10026.00488.155.00732l.01546.00082.16349.00748.04134.002.15991.00732.02483.00114.14445.00635.03971.00179.158.007.03662.00162c.10954.00472.22339.00961.333.01416l.03637.00147c.047.00212.11117.00472.15813.00667l.03963.00163.14534.00586.02434.001.16089.00651.0402.00162.16251.00635.0223.00082.14543.00553.03914.00163.15617.00586.0415.00146.16049.00586.02018.00081.1525.00554.03443.00114c.047.00179.1154.00407.16243.00569l.0328.00114.15584.00537.0153.00066.16406.00553.0376.00114.16293.00537.02685.00081.15015.00489.029.001.16626.00521.02889.00082.17082.0052.00773.00033.16382.00472.02954.001.16414.00472.03312.001.34025.00944.03182.00082.165.00439.02889.00065.14917.00391.02726.00065.16252.00407.037.001.165.00391.01977.00049.15633.00358.02849.00081.16251.00358.03947.00082.16113.00358.00822.00016.16228.00342.03833.00081.16235.00326.02987.00065.15413.00293.02181.00049c.05509.001.11255.002.16764.00309l.03019.00049.17.00309.01538.00016c.05509.001.10636.002.16146.00277l.02449.00049.1661.0026.03255.00049.17041.00277h.00554l.16479.00244.03377.00049.16382.00228.0328.00049.15006.00195.02385.00016.16129.00212.04029.00049.16072.00179.03426.00032.14242.00163.03369.00032.16081.00163.04.00033.163.00146.019.00016.15633.00131.02889.00016.16635.0013.03312.00016c.04736.00049.10831.00082.15576.00114l.01766.00017.16479.001.03841.00017.16138.00081.03141.00016.15845.00065.01432.00017.16635.00048.0402.00017.16325.00049h.02075l.15584.00032h.02946l.166.00016.03165.00017H256c129.60278,0,234.66667-105.06389,234.66667-234.66667v-.186l-.00017-.04972-.00016-.13346-.00016-.07479-.00016-.11011-.00017-.07641-.00032-.10881-.00033-.07845-.00032-.10726-.00033-.07821-.00049-.10489-.00032-.08407-.00065-.10083-.00033-.08268-.00065-.102-.00049-.08513-.00081-.09993-.00049-.08236-.00081-.10343-.00066-.08293-.00081-.10148-.00065-.082-.001-.1036-.00081-.08227-.001-.10409-.00081-.0791-.00114-.109-.00081-.07585-.00147-.119-.00065-.064-.00163-.12475-.00065-.0621-.00228-.16683-.00065-.05159-.00211-.14868-.00082-.05827-.00179-.12736-.00114-.06714-.00179-.11564-.00114-.07512L490.634,252.04l-.0013-.07528-.00179-.10815-.00147-.0765-.002-.10962-.0013-.07739-.002-.103-.00163-.08529-.002-.09985-.00163-.08244-.00212-.10351-.00163-.07967-.00211-.10425-.00179-.0822-.00212-.09969-.002-.08471-.00228-.10116-.00179-.08195-.0026-.10645-.00179-.07592-.00261-.11223-.00179-.07308-.0026-.10359-.00212-.082-.00277-.11109-.00195-.07129-.00472-.18286-.00065-.02189-.00439-.162-.0018-.06242-.00341-.12-.00228-.07983-.00293-.10336-.00244-.07991-.0031-.10515-.00244-.0804-.00309-.102-.0026-.0848-.0031-.097-.00276-.08952-.0031-.09456-.00276-.0857-.00326-.09928-.00293-.0861-.00309-.09473-.00309-.08935-.00326-.09335-.00309-.09074-.00342-.09529-.00293-.08447-.00358-.09847-.00325-.08895-.00326-.08944-.00342-.09261-.00325-.08545-.00374-.10083-.00293-.0769-.00391-.10271-.00342-.086q-.00806-.20252-.01627-.40486l-.00212-.05062-.00407-.09888-.00358-.08707-.00374-.08977-.00391-.09147-.00391-.09171-.00407-.09261-.00406-.09221-.00375-.08748-.00423-.0957-.00407-.089-.00423-.09367-.00391-.08667-.00439-.09522-.00423-.08968-.00423-.09212-.00424-.08976-.00439-.091-.0044-.09448-.00439-.08968-.00423-.08773-.00472-.09554-.00423-.08716-.00489-.09619-.0039-.07829-.00537-.10563-.00375-.07316-.00553-.10856-.00342-.0673-.006-.1145-.00293-.05559c-.00781-.14746-.01546-.29126-.02344-.43863l-.00228-.04224-.00618-.11109-.00391-.07185-.00569-.10083-.00456-.082-.00554-.09855-.00455-.08162-.006-.10571-.00439-.0752-.00586-.10148-.00472-.08138-.006-.10181-.00472-.07951-.00586-.0983-.005-.08456-.00586-.09863-.005-.08244-.006-.09871-.00489-.08065-.00634-.10295-.00489-.07666-.00651-.10392-.00472-.07576-.00667-.10694-.00456-.07153-.007-.109-.00455-.0695-.00717-.11222-.00439-.06551-.00749-.11394-.00358-.05517c-.00976-.14868-.01969-.296-.02978-.44466l-.00244-.03475-.008-.11727-.00439-.0651-.00782-.11223-.00472-.06738-.00748-.10783-.00537-.07552-.00717-.1027-.00553-.07683-.00716-.10034-.006-.08447-.007-.0979-.0057-.07764-.00781-.10783-.00537-.07185-.008-.10857-.00521-.07015-.00813-.11-.00538-.07129-.0083-.11043-.00472-.06307-.00911-.11988-.0044-.05721-.00927-.12044-.00489-.06282-.009-.11589-.005-.06584-.00912-.11491-.0039-.04947c-.02116-.26905-.04281-.53923-.06494-.808l-.00245-.03027-.01058-.12728-.00455-.0555-.00944-.11312-.0057-.06795-.00928-.11052-.00586-.069-.0096-.11157-.00553-.06657-.00993-.11491-.00554-.06421-.00976-.11295-.00586-.06706-.01009-.11556-.00505-.05924-.01074-.121-.00488-.05607-.01107-.12386-.00488-.05469-.01091-.12158-.00537-.05949-.0109-.12133-.0044-.04965-.012-.13069-.00309-.03516-.01351-.146v-.00162q-.03907-.424-.07959-.847l-.00293-.03052-.01368-.14217-.00341-.03426-.01335-.13883-.00391-.0398-.01351-.13818-.00374-.03817-.01351-.13639-.00407-.04232-.01383-.13843-.00358-.0358-.014-.14063-.00374-.03719-.01416-.14038-.00358-.035-.01416-.14079-.00391-.03825-.01432-.14022-.00342-.03239-.015-.1451-.00292-.02881-.01563-.15023-.00163-.01554-.01692-.16227v-.00082c-.04867-.46321-.09831-.92309-.14958-1.38549l-.00114-.01042-.01774-.159-.00195-.01806-.01726-.15422-.0026-.02238-.01693-.15071-.00309-.02686-.01644-.14535-.00374-.03247-.01677-.14648-.00293-.02645-.01709-.14811-.00325-.02775-.01742-.15056-.00244-.0205-.01807-.15479-.00211-.01806q-.10059-.86073-.20752-1.71884l-.00065-.00577-.02035-.16268-.00162-.01335-.01937-.154-.0031-.02425-.01985-.15747-.00147-.01156-.02034-.16015-.00212-.01677-.02034-.15837-.00179-.01416-.02035-.15893-.00228-.01717-.02051-.15877-.00146-.01107-.02148-.1648-.00049-.00366c-.07536-.5769-.15235-1.15023-.23177-1.72583l-.00017-.00041c-.01578-.11515-.03157-.22819-.04768-.34326l-.00033-.00309-.0236-.1687c-.00114-.00757.00032.0026-.00081-.005l-.02263-.16129-.0026-.01791-.0223-.15755-.002-.01375-.02246-.15837-.00228-.01579a233.058,233.058,0,0,0-14.13623-53.16609,10.67014,10.67014,0,0,0-9.91586-6.73072Z" style="fill:#6b3062"/></g></svg>